<svg width="69" height="35" viewBox="0 0 69 35" fill="none" xmlns="http://www.w3.org/2000/svg">
<path d="M10.2328 3.988L13.8328 12.628L17.3848 3.988H21.0088L15.2728 17.5H12.3688L6.58481 3.988H10.2328ZM22.4411 17.5V3.988H25.8971V17.5H22.4411ZM37.623 8.212C37.511 8.1 37.255 7.948 36.855 7.756C36.455 7.548 35.983 7.364 35.439 7.204C34.895 7.028 34.335 6.94 33.759 6.94C33.199 6.94 32.767 7.012 32.463 7.156C32.175 7.3 32.031 7.516 32.031 7.804C32.031 8.076 32.143 8.292 32.367 8.452C32.607 8.596 32.951 8.732 33.399 8.86C33.847 8.972 34.391 9.124 35.031 9.316C35.959 9.556 36.759 9.836 37.431 10.156C38.119 10.476 38.647 10.892 39.015 11.404C39.399 11.916 39.591 12.596 39.591 13.444C39.591 14.228 39.439 14.892 39.135 15.436C38.831 15.98 38.415 16.42 37.887 16.756C37.359 17.076 36.767 17.308 36.111 17.452C35.471 17.596 34.799 17.668 34.095 17.668C33.007 17.668 31.903 17.524 30.783 17.236C29.679 16.932 28.703 16.532 27.855 16.036L29.367 13.036C29.527 13.196 29.839 13.396 30.303 13.636C30.783 13.876 31.359 14.092 32.031 14.284C32.703 14.476 33.407 14.572 34.143 14.572C34.719 14.572 35.143 14.5 35.415 14.356C35.703 14.212 35.847 14.012 35.847 13.756C35.847 13.468 35.695 13.244 35.391 13.084C35.103 12.908 34.695 12.748 34.167 12.604C33.639 12.46 33.039 12.3 32.367 12.124C31.471 11.868 30.735 11.58 30.159 11.26C29.599 10.924 29.175 10.516 28.887 10.036C28.615 9.54 28.479 8.948 28.479 8.26C28.479 7.316 28.719 6.516 29.199 5.86C29.695 5.204 30.351 4.708 31.167 4.372C31.999 4.036 32.895 3.868 33.855 3.868C34.895 3.868 35.871 4.028 36.783 4.348C37.711 4.668 38.487 5.004 39.111 5.356L37.623 8.212ZM41.7302 17.5V3.988H45.1862V17.5H41.7302ZM54.4881 17.62C53.4321 17.62 52.4641 17.428 51.5841 17.044C50.7041 16.644 49.9441 16.124 49.3041 15.484C48.6641 14.828 48.1681 14.092 47.8161 13.276C47.4801 12.444 47.3121 11.596 47.3121 10.732C47.3121 9.836 47.4881 8.98 47.8401 8.164C48.2081 7.348 48.7201 6.62 49.3761 5.98C50.0321 5.34 50.8001 4.836 51.6801 4.468C52.5601 4.1 53.5201 3.916 54.5601 3.916C55.6321 3.916 56.6081 4.116 57.4881 4.516C58.3681 4.9 59.1201 5.42 59.7441 6.076C60.3841 6.732 60.8721 7.476 61.2081 8.308C61.5441 9.124 61.7121 9.956 61.7121 10.804C61.7121 11.684 61.5361 12.532 61.1841 13.348C60.8321 14.164 60.3281 14.892 59.6721 15.532C59.0321 16.172 58.2721 16.684 57.3921 17.068C56.5281 17.436 55.5601 17.62 54.4881 17.62ZM50.8161 10.756C50.8161 11.236 50.8961 11.708 51.0561 12.172C51.2321 12.62 51.4721 13.028 51.7761 13.396C52.0961 13.748 52.4881 14.028 52.9521 14.236C53.4161 14.444 53.9441 14.548 54.5361 14.548C55.1441 14.548 55.6721 14.436 56.1201 14.212C56.5841 13.988 56.9681 13.7 57.2721 13.348C57.5761 12.98 57.8081 12.572 57.9681 12.124C58.1281 11.66 58.2081 11.196 58.2081 10.732C58.2081 10.236 58.1201 9.764 57.9441 9.316C57.7841 8.868 57.5441 8.468 57.2241 8.116C56.9201 7.764 56.5361 7.492 56.0721 7.3C55.6241 7.092 55.1041 6.988 54.5121 6.988C53.9041 6.988 53.3681 7.092 52.9041 7.3C52.4561 7.508 52.0721 7.796 51.7521 8.164C51.4481 8.532 51.2161 8.94 51.0561 9.388C50.8961 9.836 50.8161 10.292 50.8161 10.756ZM0.858938 27.636C0.858938 26.804 1.01894 25.988 1.33894 25.188C1.67494 24.388 2.15494 23.668 2.77894 23.028C3.40294 22.388 4.16294 21.876 5.05894 21.492C5.95494 21.108 6.97094 20.916 8.10694 20.916C9.46694 20.916 10.6429 21.188 11.6349 21.732C12.6269 22.276 13.3629 22.988 13.8429 23.868L11.2029 25.74C10.8989 25.052 10.4349 24.588 9.81094 24.348C9.20294 24.108 8.61094 23.988 8.03494 23.988C7.42694 23.988 6.89094 24.1 6.42694 24.324C5.96294 24.532 5.57894 24.82 5.27494 25.188C4.97094 25.54 4.73894 25.94 4.57894 26.388C4.43494 26.836 4.36294 27.284 4.36294 27.732C4.36294 28.228 4.45094 28.708 4.62694 29.172C4.80294 29.636 5.05094 30.052 5.37094 30.42C5.70694 30.772 6.09894 31.052 6.54694 31.26C7.01094 31.452 7.52294 31.548 8.08294 31.548C8.46694 31.548 8.86694 31.492 9.28294 31.38C9.69894 31.252 10.0749 31.06 10.4109 30.804C10.7629 30.548 11.0269 30.212 11.2029 29.796L14.0349 31.476C13.7469 32.148 13.2749 32.716 12.6189 33.18C11.9629 33.644 11.2269 34.004 10.4109 34.26C9.59494 34.5 8.78694 34.62 7.98694 34.62C6.94694 34.62 5.98694 34.42 5.10694 34.02C4.24294 33.62 3.49094 33.092 2.85094 32.436C2.21094 31.764 1.71494 31.012 1.36294 30.18C1.02694 29.348 0.858938 28.5 0.858938 27.636ZM15.9255 34.5V20.988H22.7175C23.6775 20.988 24.5255 21.22 25.2615 21.684C25.9975 22.132 26.5735 22.708 26.9895 23.412C27.4215 24.116 27.6375 24.852 27.6375 25.62C27.6375 26.148 27.5335 26.66 27.3255 27.156C27.1335 27.652 26.8535 28.1 26.4855 28.5C26.1175 28.9 25.6775 29.236 25.1655 29.508L28.6455 34.5H24.7335L21.7095 30.276H19.3815V34.5H15.9255ZM19.3815 27.252H22.5975C22.8855 27.252 23.1415 27.188 23.3655 27.06C23.6055 26.916 23.7895 26.724 23.9175 26.484C24.0615 26.228 24.1335 25.94 24.1335 25.62C24.1335 25.268 24.0535 24.98 23.8935 24.756C23.7335 24.516 23.5255 24.332 23.2695 24.204C23.0295 24.06 22.7655 23.988 22.4775 23.988H19.3815V27.252ZM28.8499 34.5L34.6819 20.988H37.4899L43.2739 34.5H39.6259L38.4259 31.668H33.6979L32.5459 34.5H28.8499ZM36.0739 25.164L34.4419 28.668H37.6579L36.0739 25.164ZM44.7068 34.5V20.988H54.9308V23.988H48.1628V26.532H53.7788V29.34H48.1628V34.5H44.7068ZM68.4617 23.988H63.8537V34.5H60.3977V23.988H55.7897V20.988H68.4617V23.988Z" fill="white"/>
</svg>
