<svg width="22" height="24" viewBox="0 0 22 24" fill="none" xmlns="http://www.w3.org/2000/svg">
<path d="M18.7132 0.857422H3.2846C2.33783 0.857422 1.57031 1.62493 1.57031 2.57171V21.4289C1.57031 22.3757 2.33783 23.1431 3.2846 23.1431H18.7132C19.66 23.1431 20.4275 22.3757 20.4275 21.4289V2.57171C20.4275 1.62493 19.66 0.857422 18.7132 0.857422Z" stroke="#B6B9A2" stroke-width="1.71429" stroke-linecap="round" stroke-linejoin="round"/>
<path d="M1.57031 9.42883H20.4275" stroke="#B6B9A2" stroke-width="1.71429" stroke-linecap="round" stroke-linejoin="round"/>
<path d="M6.28404 14.5715C6.04735 14.5715 5.85547 14.3796 5.85547 14.1429C5.85547 13.9062 6.04735 13.7144 6.28404 13.7144" stroke="#B6B9A2" stroke-width="1.71429" stroke-linecap="round" stroke-linejoin="round"/>
<path d="M6.2832 14.5715C6.51989 14.5715 6.71177 14.3796 6.71177 14.1429C6.71177 13.9062 6.51989 13.7144 6.2832 13.7144" stroke="#B6B9A2" stroke-width="1.71429" stroke-linecap="round" stroke-linejoin="round"/>
<path d="M10.9989 14.5716C10.7622 14.5716 10.5703 14.3797 10.5703 14.143C10.5703 13.9064 10.7622 13.7145 10.9989 13.7145" stroke="#B6B9A2" stroke-width="1.71429" stroke-linecap="round" stroke-linejoin="round"/>
<path d="M10.998 14.5716C11.2347 14.5716 11.4266 14.3797 11.4266 14.143C11.4266 13.9064 11.2347 13.7145 10.998 13.7145" stroke="#B6B9A2" stroke-width="1.71429" stroke-linecap="round" stroke-linejoin="round"/>
<path d="M15.7137 14.5716C15.477 14.5716 15.2852 14.3797 15.2852 14.143C15.2852 13.9064 15.477 13.7145 15.7137 13.7145" stroke="#B6B9A2" stroke-width="1.71429" stroke-linecap="round" stroke-linejoin="round"/>
<path d="M15.7129 14.5716C15.9496 14.5716 16.1415 14.3797 16.1415 14.143C16.1415 13.9064 15.9496 13.7145 15.7129 13.7145" stroke="#B6B9A2" stroke-width="1.71429" stroke-linecap="round" stroke-linejoin="round"/>
<path d="M6.28404 18.8576C6.04735 18.8576 5.85547 18.6658 5.85547 18.4291C5.85547 18.1923 6.04735 18.0005 6.28404 18.0005" stroke="#B6B9A2" stroke-width="1.71429" stroke-linecap="round" stroke-linejoin="round"/>
<path d="M6.2832 18.8576C6.51989 18.8576 6.71177 18.6658 6.71177 18.4291C6.71177 18.1923 6.51989 18.0005 6.2832 18.0005" stroke="#B6B9A2" stroke-width="1.71429" stroke-linecap="round" stroke-linejoin="round"/>
<path d="M10.9989 18.8574C10.7622 18.8574 10.5703 18.6656 10.5703 18.4288C10.5703 18.1921 10.7622 18.0002 10.9989 18.0002" stroke="#B6B9A2" stroke-width="1.71429" stroke-linecap="round" stroke-linejoin="round"/>
<path d="M10.998 18.8574C11.2347 18.8574 11.4266 18.6656 11.4266 18.4288C11.4266 18.1921 11.2347 18.0002 10.998 18.0002" stroke="#B6B9A2" stroke-width="1.71429" stroke-linecap="round" stroke-linejoin="round"/>
<path d="M15.7137 18.8574C15.477 18.8574 15.2852 18.6656 15.2852 18.4288C15.2852 18.1921 15.477 18.0002 15.7137 18.0002" stroke="#B6B9A2" stroke-width="1.71429" stroke-linecap="round" stroke-linejoin="round"/>
<path d="M15.7129 18.8574C15.9496 18.8574 16.1415 18.6656 16.1415 18.4288C16.1415 18.1921 15.9496 18.0002 15.7129 18.0002" stroke="#B6B9A2" stroke-width="1.71429" stroke-linecap="round" stroke-linejoin="round"/>
<path d="M16.142 5.14307H14.4277" stroke="#B6B9A2" stroke-width="1.71429" stroke-linecap="round" stroke-linejoin="round"/>
</svg>
