<svg width="54" height="54" viewBox="0 0 54 54" fill="none" xmlns="http://www.w3.org/2000/svg">
<path d="M14.0718 13.4759C13.9647 11.3051 14.6082 9.1634 15.8944 7.41117C17.1804 5.65882 19.0305 4.40276 21.1338 3.85428L22.9314 3.35095C23.7423 3.1435 24.6021 3.2616 25.3269 3.68008C26.0518 4.09855 26.5842 4.78426 26.8098 5.59014L28.832 13.2989C29.0403 14.1045 28.924 14.9597 28.5079 15.6804C28.0919 16.401 27.4094 16.9294 26.6076 17.1517C25.8016 17.3775 25.1159 17.9098 24.6974 18.6346C24.2789 19.3595 24.1608 20.2194 24.3683 21.0303L27.6251 33.1848C27.73 33.5881 27.914 33.9665 28.1665 34.2981C28.419 34.6296 28.7349 34.9076 29.0957 35.116C29.4567 35.3244 29.8554 35.4589 30.2688 35.5118C30.6821 35.5647 31.1019 35.5348 31.5036 35.424C32.3092 35.2157 33.1644 35.3321 33.8851 35.7481C34.6057 36.1642 35.1341 36.8466 35.3564 37.6485L37.4191 45.3463C37.6265 46.1572 37.5084 47.017 37.09 47.7419C36.6713 48.4669 35.9858 48.9991 35.1798 49.2249L33.3714 49.6878C31.2757 50.2642 29.0454 50.1015 27.0555 49.2271C25.0655 48.3528 23.4373 46.8197 22.4448 44.8859C17.6786 35.0449 14.8367 24.3838 14.0718 13.4759Z" fill="url(#paint0_linear_320_512)"/>
<path d="M14.0718 13.4759C13.9647 11.3051 14.6082 9.1634 15.8944 7.41117C17.1804 5.65882 19.0305 4.40276 21.1338 3.85428L22.9314 3.35095C23.7423 3.1435 24.6021 3.2616 25.3269 3.68008C26.0518 4.09855 26.5842 4.78426 26.8098 5.59014L28.832 13.2989C29.0403 14.1045 28.924 14.9597 28.5079 15.6804C28.0919 16.401 27.4094 16.9294 26.6076 17.1517C25.8016 17.3775 25.1159 17.9098 24.6974 18.6346C24.2789 19.3595 24.1608 20.2194 24.3683 21.0303L27.6251 33.1848C27.73 33.5881 27.914 33.9665 28.1665 34.2981C28.419 34.6296 28.7349 34.9076 29.0957 35.116C29.4567 35.3244 29.8554 35.4589 30.2688 35.5118C30.6821 35.5647 31.1019 35.5348 31.5036 35.424C32.3092 35.2157 33.1644 35.3321 33.8851 35.7481C34.6057 36.1642 35.1341 36.8466 35.3564 37.6485L37.4191 45.3463C37.6265 46.1572 37.5084 47.017 37.09 47.7419C36.6713 48.4669 35.9858 48.9991 35.1798 49.2249L33.3714 49.6878C31.2757 50.2642 29.0454 50.1015 27.0555 49.2271C25.0655 48.3528 23.4373 46.8197 22.4448 44.8859C17.6786 35.0449 14.8367 24.3838 14.0718 13.4759Z" fill="url(#paint1_linear_320_512)" stroke="#E9DAFB" stroke-width="2.97211" stroke-linecap="round" stroke-linejoin="round"/>
<defs>
<linearGradient id="paint0_linear_320_512" x1="43.5692" y1="36.5196" x2="10.1596" y2="17.2306" gradientUnits="userSpaceOnUse">
<stop stop-color="#BF94F6" stop-opacity="0"/>
<stop offset="1" stop-color="#BF94F6" stop-opacity="0.3"/>
</linearGradient>
<linearGradient id="paint1_linear_320_512" x1="43.5692" y1="36.5196" x2="10.1596" y2="17.2306" gradientUnits="userSpaceOnUse">
<stop stop-color="#BF94F6" stop-opacity="0"/>
<stop offset="1" stop-color="#BF94F6" stop-opacity="0.3"/>
</linearGradient>
</defs>
</svg>
