<svg width="193" height="171" viewBox="0 0 193 171" fill="none" xmlns="http://www.w3.org/2000/svg">
<path d="M67.9883 168L82.3426 132.13H111.051L125.406 168H67.9883Z" fill="white" fill-opacity="0.2"/>
<path d="M182.823 3H10.5712C6.60737 3 3.39404 6.2119 3.39404 10.1739V124.957C3.39404 128.918 6.60737 132.13 10.5712 132.13H182.823C186.786 132.13 190 128.918 190 124.957V10.1739C190 6.2119 186.786 3 182.823 3Z" fill="#D7E0FF"/>
<path d="M70.4243 41H80.3851L83.9336 76.2654C84.0811 77.2375 84.5751 78.1237 85.3246 78.7605C86.0741 79.3973 87.0286 79.7418 88.0122 79.7308H113.708C114.597 79.7773 115.477 79.5313 116.214 79.0307C116.95 78.5301 117.503 77.8023 117.786 76.9585L123.211 60.6508C123.413 60.0377 123.467 59.3853 123.368 58.7474C123.269 58.1095 123.019 57.5043 122.64 56.9815C122.245 56.4258 121.717 55.9778 121.104 55.6787C120.492 55.3796 119.814 55.2388 119.132 55.2692H81.8127" stroke="#292F42" stroke-width="4.07687" stroke-linecap="round" stroke-linejoin="round"/>
<path d="M107.082 62.5239L100.297 71.5771L95.7686 68.1862" stroke="#292F42" stroke-width="4.07687" stroke-linecap="round" stroke-linejoin="round"/>
<path d="M113.015 93.9998C111.889 93.9998 110.976 93.087 110.976 91.9613C110.976 90.8357 111.889 89.9229 113.015 89.9229C114.141 89.9229 115.054 90.8357 115.054 91.9613C115.054 93.087 114.141 93.9998 113.015 93.9998Z" stroke="#292F42" stroke-width="4.07687" stroke-linecap="round" stroke-linejoin="round"/>
<path d="M86.5032 93.9998C85.3769 93.9998 84.4639 93.087 84.4639 91.9613C84.4639 90.8357 85.3769 89.9229 86.5032 89.9229C87.6295 89.9229 88.5425 90.8357 88.5425 91.9613C88.5425 93.087 87.6295 93.9998 86.5032 93.9998Z" stroke="#292F42" stroke-width="4.07687" stroke-linecap="round" stroke-linejoin="round"/>
<path d="M182.823 3H10.5712C6.60737 3 3.39404 6.2119 3.39404 10.1739V124.957C3.39404 128.918 6.60737 132.13 10.5712 132.13H182.823C186.786 132.13 190 128.918 190 124.957V10.1739C190 6.2119 186.786 3 182.823 3Z" stroke="#292F42" stroke-width="5" stroke-linecap="round" stroke-linejoin="round"/>
<path d="M82.3426 132.13L67.9883 168" stroke="#292F42" stroke-width="5" stroke-linecap="round" stroke-linejoin="round"/>
<path d="M111.051 132.13L125.405 168" stroke="#292F42" stroke-width="5" stroke-linecap="round" stroke-linejoin="round"/>
<path d="M53.6338 168H139.76" stroke="#292F42" stroke-width="5" stroke-linecap="round" stroke-linejoin="round"/>
</svg>
