<svg width="191" height="168" viewBox="0 0 191 168" fill="none" xmlns="http://www.w3.org/2000/svg">
<path d="M66.9883 166.5L81.3426 130.63H110.051L124.405 166.5H66.9883Z" fill="#D7E0FF" fill-opacity="0.2"/>
<path fill-rule="evenodd" clip-rule="evenodd" d="M9.57167 1.5H102.874V73.2391L120.243 58.8913C125.391 54.6337 131.863 52.3042 138.545 52.3042C145.227 52.3042 151.699 54.6337 156.847 58.8913L189 87.587V123.457C189 127.418 185.786 130.63 181.823 130.63H9.57167C5.60785 130.63 2.39453 127.418 2.39453 123.457V8.67391C2.39453 4.7119 5.60785 1.5 9.57167 1.5Z" fill="#D7E0FF"/>
<path d="M189 8.67391C189 4.7119 185.786 1.5 181.823 1.5H102.874V73.2391L120.243 58.8913C125.391 54.6337 131.863 52.3042 138.544 52.3042C145.226 52.3042 151.699 54.6337 156.846 58.8913L189 87.587V8.67391Z" fill="#D7E0FF"/>
<path d="M81.3426 130.63L66.9883 166.5" stroke="#292F42" stroke-width="3" stroke-linecap="round" stroke-linejoin="round"/>
<path d="M110.051 130.63L124.406 166.5" stroke="#292F42" stroke-width="3" stroke-linecap="round" stroke-linejoin="round"/>
<path d="M52.6343 166.5H138.76" stroke="#292F42" stroke-width="3" stroke-linecap="round" stroke-linejoin="round"/>
<path d="M38.2803 44.5435H66.9888" stroke="#292F42" stroke-width="3" stroke-linecap="round" stroke-linejoin="round"/>
<path d="M38.2803 87.5869H52.6345" stroke="#292F42" stroke-width="3" stroke-linecap="round" stroke-linejoin="round"/>
<path d="M181.823 1.5H9.57167C5.60785 1.5 2.39453 4.7119 2.39453 8.67391V123.457C2.39453 127.418 5.60785 130.63 9.57167 130.63H181.823C185.786 130.63 189 127.418 189 123.457V8.67391C189 4.7119 185.786 1.5 181.823 1.5Z" stroke="#292F42" stroke-width="3" stroke-linecap="round" stroke-linejoin="round"/>
<path d="M102.874 1.5V130.63" stroke="#292F42" stroke-width="3" stroke-linecap="round" stroke-linejoin="round"/>
<path d="M102.874 73.2391L120.243 58.8913C125.391 54.6337 131.863 52.3042 138.544 52.3042C145.226 52.3042 151.699 54.6337 156.846 58.8913L189 87.5869" stroke="#292F42" stroke-width="3" stroke-linecap="round" stroke-linejoin="round"/>
</svg>
