<svg width="57" height="46" viewBox="0 0 57 46" fill="none" xmlns="http://www.w3.org/2000/svg">
<path d="M50.6923 1.73145H6.05769C3.81669 1.73145 2 3.54816 2 5.78914V40.2795C2 42.5206 3.81669 44.3372 6.05769 44.3372H50.6923C52.9334 44.3372 54.75 42.5206 54.75 40.2795V5.78914C54.75 3.54816 52.9334 1.73145 50.6923 1.73145Z" fill="url(#paint0_linear_320_517)"/>
<path d="M50.6923 1.73145H6.05769C3.81669 1.73145 2 3.54816 2 5.78914V40.2795C2 42.5206 3.81669 44.3372 6.05769 44.3372H50.6923C52.9334 44.3372 54.75 42.5206 54.75 40.2795V5.78914C54.75 3.54816 52.9334 1.73145 50.6923 1.73145Z" fill="url(#paint1_linear_320_517)" stroke="#E9DAFB" stroke-width="2.97525" stroke-linecap="round" stroke-linejoin="round"/>
<path d="M2 6.80469L25.7781 27.0931C26.5072 27.7005 27.4261 28.033 28.375 28.033C29.3239 28.033 30.2428 27.7005 30.9719 27.0931L54.75 6.80469" fill="url(#paint2_linear_320_517)"/>
<path d="M2 6.80469L25.7781 27.0931C26.5072 27.7005 27.4261 28.033 28.375 28.033C29.3239 28.033 30.2428 27.7005 30.9719 27.0931L54.75 6.80469" stroke="#E9DAFB" stroke-width="2.97525" stroke-linecap="round" stroke-linejoin="round"/>
<defs>
<linearGradient id="paint0_linear_320_517" x1="28.375" y1="1.73145" x2="28.375" y2="44.3372" gradientUnits="userSpaceOnUse">
<stop stop-color="#BF94F6" stop-opacity="0"/>
<stop offset="1" stop-color="#BF94F6" stop-opacity="0.3"/>
</linearGradient>
<linearGradient id="paint1_linear_320_517" x1="28.375" y1="1.73145" x2="28.375" y2="44.3372" gradientUnits="userSpaceOnUse">
<stop stop-color="#BF94F6" stop-opacity="0"/>
<stop offset="1" stop-color="#BF94F6" stop-opacity="0.3"/>
</linearGradient>
<linearGradient id="paint2_linear_320_517" x1="28.375" y1="6.80469" x2="28.375" y2="28.033" gradientUnits="userSpaceOnUse">
<stop stop-color="#BF94F6" stop-opacity="0"/>
<stop offset="1" stop-color="#BF94F6" stop-opacity="0.3"/>
</linearGradient>
</defs>
</svg>
