<svg width="40" height="41" viewBox="0 0 40 41" fill="none" xmlns="http://www.w3.org/2000/svg">
<path d="M16.2317 12.6324C10.6185 8.80253 5.38532 11.7261 1 16.2283L10.7062 22.0754" stroke="#F97068" stroke-width="2" stroke-linecap="round" stroke-linejoin="round"/>
<path d="M27.8674 24.2686C31.6972 29.8816 28.7737 35.1148 24.2714 39.5001L18.4243 29.7939" stroke="#F97068" stroke-width="2" stroke-linecap="round" stroke-linejoin="round"/>
<path d="M10.7056 22.0461L18.453 29.7936C24.6509 26.0806 31.6966 22.4846 34.9125 19.1518C41.8705 12.1938 37.836 2.66303 37.836 2.66303C37.836 2.66303 28.3053 -1.37146 21.3473 5.58656C18.0144 8.80246 14.3892 15.8774 10.7056 22.0461Z" stroke="#F97068" stroke-width="2" stroke-linecap="round" stroke-linejoin="round"/>
<path d="M14.9741 14.7085L25.7912 25.5256" stroke="#F97068" stroke-width="2" stroke-linecap="round" stroke-linejoin="round"/>
<path d="M30.2352 11.7265C31.0424 11.7265 31.697 11.0721 31.697 10.2648C31.697 9.45744 31.0424 8.80298 30.2352 8.80298C29.428 8.80298 28.7734 9.45744 28.7734 10.2648C28.7734 11.0721 29.428 11.7265 30.2352 11.7265Z" stroke="#F97068" stroke-width="2" stroke-linecap="round" stroke-linejoin="round"/>
<path d="M10.2969 36.4002C8.60121 38.0374 1 39.4991 1 39.4991C1 39.4991 2.46177 31.8979 4.09896 30.2023C4.50042 29.7716 4.98456 29.4261 5.52249 29.1863C6.06042 28.9466 6.64112 28.8177 7.22993 28.8073C7.81876 28.7969 8.40364 28.9053 8.9497 29.1258C9.49573 29.3462 9.99177 29.6746 10.4082 30.0912C10.8246 30.5075 11.1529 31.0036 11.3735 31.5497C11.594 32.0955 11.7023 32.6806 11.6919 33.2694C11.6815 33.8582 11.5527 34.4388 11.313 34.9767C11.0733 35.5146 10.7277 35.9988 10.2969 36.4002Z" stroke="#F97068" stroke-width="2" stroke-linecap="round" stroke-linejoin="round"/>
</svg>
