<svg width="26" height="32" viewBox="0 0 26 32" fill="none" xmlns="http://www.w3.org/2000/svg">
<path d="M25 29.1999V2.7999C25 1.47442 23.9255 0.399902 22.6 0.399902H3.4C2.0745 0.399902 1 1.47442 1 2.7999V29.1999C1 30.5254 2.0745 31.5999 3.4 31.5999H22.6C23.9255 31.5999 25 30.5254 25 29.1999Z" fill="#DF2935" fill-opacity="0.3" stroke="white" stroke-width="0.8" stroke-linecap="round" stroke-linejoin="round"/>
<path d="M16.7122 12.3712C18.3404 12.3712 19.6603 11.0513 19.6603 9.42319C19.6603 7.795 18.3404 6.4751 16.7122 6.4751C15.0841 6.4751 13.7642 7.795 13.7642 9.42319C13.7642 11.0513 15.0841 12.3712 16.7122 12.3712Z" fill="#DF2935" fill-opacity="0.3" stroke="white" stroke-width="0.8" stroke-linecap="round" stroke-linejoin="round"/>
<path d="M1 17.9377C1.83285 17.7961 2.67902 17.7259 3.52691 17.7279C6.46578 17.6688 9.33263 18.5403 11.616 20.187C15.3149 22.8545 16.7125 27.4781 16.7125 31.6001" fill="#DF2935" fill-opacity="0.3"/>
<path d="M1 17.9377C1.83285 17.7961 2.67902 17.7259 3.52691 17.7279C6.46578 17.6688 9.33263 18.5403 11.616 20.187C15.3149 22.8545 16.7125 27.4781 16.7125 31.6001" stroke="white" stroke-width="0.8" stroke-linecap="round" stroke-linejoin="round"/>
<path d="M25.0002 21.6901C23.3747 21.2019 21.6704 20.9533 19.9547 20.9541C17.783 20.9499 15.6332 21.3409 13.6377 22.103" fill="#DF2935" fill-opacity="0.3"/>
<path d="M25.0002 21.6901C23.3747 21.2019 21.6704 20.9533 19.9547 20.9541C17.783 20.9499 15.6332 21.3409 13.6377 22.103" stroke="white" stroke-width="0.8" stroke-linecap="round" stroke-linejoin="round"/>
</svg>
