<svg width="26" height="26" viewBox="0 0 26 26" fill="none" xmlns="http://www.w3.org/2000/svg">
<path d="M7.74872 18.1016C7.40926 17.8132 7.18553 17.4119 7.11874 16.9716L6.1582 7.46278H23.0598C23.3685 7.44899 23.6755 7.51274 23.953 7.64821C24.2306 7.7837 24.4696 7.98656 24.6484 8.23826C24.8202 8.47499 24.9331 8.7491 24.9781 9.03798C25.023 9.32689 24.9986 9.62233 24.907 9.9L22.4503 17.2855C22.3219 17.6677 22.0716 17.9973 21.7382 18.224C21.4046 18.4507 21.006 18.5621 20.6031 18.5411H8.96592C8.52043 18.546 8.08816 18.39 7.74872 18.1016Z" fill="#DF2935" fill-opacity="0.3"/>
<path d="M1 0.998535H5.51114L7.11819 16.9697C7.18499 17.41 7.40872 17.8113 7.74815 18.0997C8.08761 18.3881 8.51989 18.5441 8.96537 18.5391H20.6026C21.0055 18.5602 21.4041 18.4488 21.7377 18.2221C22.0711 17.9954 22.3212 17.6658 22.4498 17.2836L24.9065 9.89808C24.9981 9.62042 25.0225 9.32497 24.9774 9.03608C24.9326 8.74718 24.8195 8.47308 24.6479 8.23634C24.4691 7.98464 24.2301 7.78178 23.9524 7.64629C23.675 7.51082 23.3678 7.44707 23.0593 7.46086H6.15766" stroke="white" stroke-width="0.8" stroke-linecap="round" stroke-linejoin="round"/>
<path d="M17.6016 10.7466L14.529 14.8466L12.478 13.311" stroke="white" stroke-width="0.8" stroke-linecap="round" stroke-linejoin="round"/>
<path d="M20.2888 25.0012C19.7788 25.0012 19.3652 24.5878 19.3652 24.078C19.3652 23.5682 19.7788 23.1548 20.2888 23.1548C20.799 23.1548 21.2124 23.5682 21.2124 24.078C21.2124 24.5878 20.799 25.0012 20.2888 25.0012Z" stroke="white" stroke-width="0.8" stroke-linecap="round" stroke-linejoin="round"/>
<path d="M8.28199 25.0012C7.77191 25.0012 7.3584 24.5878 7.3584 24.078C7.3584 23.5682 7.77191 23.1548 8.28199 23.1548C8.79209 23.1548 9.20558 23.5682 9.20558 24.078C9.20558 24.5878 8.79209 25.0012 8.28199 25.0012Z" stroke="white" stroke-width="0.8" stroke-linecap="round" stroke-linejoin="round"/>
</svg>
