<svg width="36" height="33" viewBox="0 0 36 33" fill="none" xmlns="http://www.w3.org/2000/svg">
<path d="M12.9225 13.9619C16.4272 13.9619 19.2683 11.1208 19.2683 7.6161C19.2683 4.11139 16.4272 1.27026 12.9225 1.27026C9.41779 1.27026 6.57666 4.11139 6.57666 7.6161C6.57666 11.1208 9.41779 13.9619 12.9225 13.9619Z" stroke="#EDF2EF" stroke-width="2" stroke-linecap="round" stroke-linejoin="round"/>
<path d="M1.5 31.7301H12.9225H24.345V30.3541C24.3248 28.4191 23.8145 26.5212 22.8619 24.837C21.9093 23.1531 20.5454 21.7379 18.8976 20.7238C17.2497 19.7098 15.3718 19.1299 13.4391 19.0384C13.2668 19.0303 13.0945 19.026 12.9225 19.0256C12.7505 19.026 12.5782 19.0303 12.4059 19.0384C10.4732 19.1299 8.59528 19.7098 6.94744 20.7238C5.29963 21.7379 3.93571 23.1531 2.98307 24.837C2.03045 26.5212 1.52021 28.4191 1.5 30.3541V31.7301Z" stroke="#EDF2EF" stroke-width="2" stroke-linecap="round" stroke-linejoin="round"/>
<path d="M23.0757 13.9619C26.5804 13.9619 29.4215 11.1208 29.4215 7.6161C29.4215 4.11139 26.5804 1.27026 23.0757 1.27026" stroke="#B2C7BB" stroke-width="2" stroke-linecap="round" stroke-linejoin="round"/>
<path d="M29.4218 31.73H34.4984V30.354C34.4781 28.4193 33.9679 26.5211 33.0153 24.8369C32.0626 23.153 30.6988 21.7378 29.0509 20.7237C27.9858 20.0682 26.8243 19.5942 25.6143 19.3162" stroke="#B2C7BB" stroke-width="2" stroke-linecap="round" stroke-linejoin="round"/>
</svg>
