<svg width="122" height="26" viewBox="0 0 122 26" fill="none" xmlns="http://www.w3.org/2000/svg">
<rect width="25.8723" height="25.8723" rx="12.9362" fill="#DCF451"/>
<path fill-rule="evenodd" clip-rule="evenodd" d="M11.533 18.6515C11.7996 19.1668 12.3314 19.4904 12.9117 19.4904H12.9968C13.5782 19.4904 14.1108 19.1656 14.3769 18.6487L16.2899 14.9337C15.4744 15.1883 14.7988 15.1608 14.2074 14.9059C14.144 14.8785 14.0829 14.8491 14.0239 14.818L13.2929 16.3508C13.1521 16.646 12.7318 16.6454 12.5919 16.3499L11.1363 13.2766C10.7045 13.4251 10.1159 13.742 9.30865 14.3531L11.533 18.6515ZM8.69403 13.1654C9.40078 12.6462 10.0171 12.2897 10.5692 12.0791L9.24091 9.27453C9.05277 8.87729 8.65258 8.62402 8.21305 8.62402C7.36068 8.62402 6.81123 9.52701 7.20297 10.284L8.69403 13.1654ZM14.5928 13.6252C14.6381 13.6513 14.6836 13.6743 14.7297 13.6942C15.04 13.8279 15.5476 13.8931 16.5353 13.4168C16.7128 13.3312 16.9096 13.3322 17.078 13.403L18.6922 10.2682C19.0787 9.51759 18.5338 8.62402 17.6895 8.62402C17.2547 8.62402 16.8586 8.87395 16.6715 9.26639L14.5928 13.6252Z" fill="#252D29"/>
<path d="M115.673 9.03289V17.9316C115.673 18.1622 115.86 18.3493 116.091 18.3493H116.784C117.014 18.3493 117.201 18.1622 117.201 17.9316V9.03289C117.201 8.91266 117.299 8.81519 117.419 8.81519H120.599C120.829 8.81519 121.016 8.62817 121.016 8.39748V7.94075C121.016 7.71006 120.829 7.52305 120.599 7.52305H112.29C112.06 7.52305 111.873 7.71006 111.873 7.94075V8.39748C111.873 8.62817 112.06 8.81519 112.29 8.81519H115.455C115.576 8.81519 115.673 8.91266 115.673 9.03289Z" fill="#252D29" stroke="#252D29" stroke-width="0.2"/>
<path d="M104.283 7.94075V17.9316C104.283 18.1622 104.47 18.3493 104.701 18.3493H105.393C105.624 18.3493 105.811 18.1622 105.811 17.9316V13.4014C105.811 13.2812 105.909 13.1837 106.029 13.1837H110.33C110.561 13.1837 110.748 12.9967 110.748 12.766V12.3093C110.748 12.0786 110.561 11.8916 110.33 11.8916H106.029C105.909 11.8916 105.811 11.7941 105.811 11.6739V9.03289C105.811 8.91266 105.909 8.81519 106.029 8.81519H110.876C111.107 8.81519 111.294 8.62817 111.294 8.39748V7.94075C111.294 7.71006 111.107 7.52305 110.876 7.52305H104.701C104.47 7.52305 104.283 7.71006 104.283 7.94075Z" fill="#252D29" stroke="#252D29" stroke-width="0.2"/>
<path d="M94.4766 18.0881L95.7787 14.8662H100.287L101.584 18.0875C101.647 18.2457 101.801 18.3493 101.971 18.3493H102.695C102.994 18.3493 103.196 18.0448 103.08 17.7695L98.8756 7.77873C98.8104 7.6238 98.6587 7.52305 98.4906 7.52305H97.5841C97.4162 7.52305 97.2646 7.62359 97.1993 7.77828L92.9809 17.7691C92.8646 18.0445 93.0668 18.3493 93.3657 18.3493H94.0893C94.2595 18.3493 94.4128 18.2459 94.4766 18.0881ZM98.2389 9.77838L99.7668 13.5741H96.3009L97.835 9.7781C97.9085 9.59646 98.1657 9.59664 98.2389 9.77838Z" fill="#252D29" stroke="#252D29" stroke-width="0.2"/>
<path d="M90.2574 9.24556L90.258 9.24603C90.6325 9.52005 90.8222 9.9138 90.8222 10.4419C90.8222 10.9647 90.6329 11.356 90.2583 11.6302C89.8786 11.9033 89.3269 12.0466 88.5903 12.0466H86.185C86.0648 12.0466 85.9673 11.9491 85.9673 11.8289V9.03289C85.9673 8.91266 86.0648 8.81519 86.185 8.81519H88.5903C89.3266 8.81519 89.8778 8.9632 90.2574 9.24556ZM86.185 13.3387H88.0914C88.097 13.353 88.1035 13.3672 88.1109 13.3813L90.5968 18.1254C90.6689 18.263 90.8114 18.3493 90.9668 18.3493H91.7548C92.0688 18.3493 92.2705 18.0158 92.1248 17.7377L89.7735 13.2505C90.4472 13.1415 90.995 12.9307 91.4125 12.6136C92.0613 12.1209 92.38 11.3834 92.38 10.4198C92.38 9.46355 92.0631 8.73158 91.418 8.24254C90.778 7.75747 89.83 7.52305 88.5903 7.52305H84.8568C84.6261 7.52305 84.4391 7.71006 84.4391 7.94075V17.9316C84.4391 18.1622 84.6261 18.3493 84.8568 18.3493H85.5496C85.7803 18.3493 85.9673 18.1622 85.9673 17.9316V13.5564C85.9673 13.4362 86.0648 13.3387 86.185 13.3387Z" fill="#252D29" stroke="#252D29" stroke-width="0.2"/>
<path d="M75.846 17.803L75.8462 17.8032C76.6216 18.2865 77.521 18.5267 78.5409 18.5267C79.6272 18.5267 80.5801 18.2385 81.3956 17.6596L81.3959 17.6594C82.1371 17.1287 82.6627 16.3793 82.9747 15.4171C83.0472 15.1934 82.9107 14.9643 82.6909 14.9041L81.8752 14.6805C81.637 14.6152 81.4036 14.7692 81.3423 14.9974C81.1668 15.6511 80.8457 16.1693 80.3808 16.5567C79.839 17.0082 79.1954 17.2346 78.445 17.2346C77.755 17.2346 77.1609 17.0553 76.6582 16.6996C76.1534 16.3376 75.7583 15.8339 75.4744 15.1843C75.1954 14.5349 75.0546 13.7839 75.0546 12.9291C75.0546 12.089 75.193 11.3476 75.4672 10.7028C75.7412 10.0587 76.1337 9.55496 76.6436 9.18794C77.1556 8.823 77.774 8.63843 78.504 8.63843C79.2017 8.63843 79.7992 8.83857 80.3015 9.23667L80.3019 9.23695C80.7451 9.58486 81.0769 10.108 81.292 10.8159C81.357 11.0299 81.5758 11.1696 81.801 11.1166L82.5943 10.9296C82.8169 10.8772 82.9618 10.6516 82.8956 10.4249C82.6087 9.44283 82.0971 8.69291 81.3576 8.18306C80.5472 7.62435 79.602 7.34629 78.5262 7.34629C77.4679 7.34629 76.5533 7.58605 75.7869 8.07003C75.023 8.54755 74.435 9.20378 74.0237 10.0364L74.0235 10.0369C73.6174 10.8692 73.4156 11.8193 73.4156 12.8848C73.4156 13.9802 73.6273 14.9553 74.0534 15.8075L74.0535 15.8077C74.4795 16.6546 75.0771 17.3205 75.846 17.803Z" fill="#252D29" stroke="#252D29" stroke-width="0.2"/>
<path d="M62.1633 15.9036L62.1636 15.9041C62.5901 16.7421 63.196 17.3912 63.9807 17.849L63.9814 17.8493C64.7715 18.3023 65.7043 18.5267 66.7762 18.5267C67.848 18.5267 68.7785 18.3023 69.5639 17.8492L69.5641 17.8491C70.3537 17.3914 70.9599 16.7421 71.3816 15.9038C71.8082 15.0655 72.0196 14.0753 72.0196 12.9365C72.0196 11.793 71.8083 10.8027 71.3815 9.96907C70.9598 9.13085 70.3537 8.48403 69.564 8.03124C68.7786 7.5732 67.8481 7.34629 66.7762 7.34629C65.7042 7.34629 64.7712 7.57325 63.981 8.03124C63.1962 8.48407 62.5901 9.13088 62.1636 9.96893L62.1634 9.96914C61.7416 10.8027 61.5328 11.793 61.5328 12.9365C61.5328 14.0752 61.7417 15.0653 62.1633 15.9036ZM69.9395 10.6387L69.9396 10.6389C70.2323 11.2773 70.3806 12.0421 70.3806 12.9365C70.3806 13.8259 70.2324 14.5909 69.9395 15.2343C69.6465 15.8778 69.2306 16.3714 68.6923 16.7192C68.16 17.0614 67.5227 17.2346 66.7762 17.2346C66.0348 17.2346 65.3974 17.0615 64.8599 16.7191C64.3217 16.3713 63.9058 15.8777 63.6129 15.2343C63.32 14.5909 63.1718 13.8259 63.1718 12.9365C63.1718 12.0421 63.3201 11.2773 63.6128 10.6389L63.6129 10.6387C63.9058 9.99527 64.3217 9.50425 64.8597 9.16145L64.8597 9.16145L64.8602 9.16111C65.3977 8.81388 66.035 8.63843 66.7762 8.63843C67.5225 8.63843 68.1596 8.81396 68.6919 9.16089L68.6919 9.1609L68.6927 9.16145C69.2307 9.50425 69.6466 9.99527 69.9395 10.6387Z" fill="#252D29" stroke="#252D29" stroke-width="0.2"/>
<path d="M56.3414 17.5339V17.9316C56.3414 18.1622 56.5284 18.3493 56.7591 18.3493H60.2709C60.5016 18.3493 60.6886 18.1622 60.6886 17.9316V17.5339C60.6886 17.3032 60.5016 17.1162 60.2709 17.1162H59.4968C59.3766 17.1162 59.2791 17.0187 59.2791 16.8984V8.97386C59.2791 8.85362 59.3766 8.75615 59.4968 8.75615H60.2709C60.5016 8.75615 60.6886 8.56914 60.6886 8.33844V7.94075C60.6886 7.71006 60.5016 7.52305 60.2709 7.52305H56.7591C56.5284 7.52305 56.3414 7.71006 56.3414 7.94075V8.33844C56.3414 8.56914 56.5284 8.75615 56.7591 8.75615H57.5331C57.6534 8.75615 57.7509 8.85362 57.7509 8.97386V16.8984C57.7509 17.0187 57.6534 17.1162 57.5331 17.1162H56.7591C56.5284 17.1162 56.3414 17.3032 56.3414 17.5339Z" fill="#252D29" stroke="#252D29" stroke-width="0.2"/>
<path d="M49.3716 18.1119L49.3725 18.1123C49.9978 18.3896 50.7255 18.5267 51.553 18.5267C52.3454 18.5267 53.0313 18.4022 53.6077 18.1493L53.6081 18.1492C54.1898 17.8912 54.6387 17.5174 54.9505 17.027C55.2676 16.5358 55.4238 15.9481 55.4238 15.2684C55.4238 14.5913 55.2835 14.0359 54.9934 13.6109C54.7083 13.1885 54.3363 12.86 53.8787 12.6261C53.4285 12.3959 52.9509 12.2234 52.4462 12.1085C52.4461 12.1085 52.446 12.1085 52.446 12.1084L51.0443 11.7838L51.0441 11.7838C50.3657 11.6276 49.8954 11.4281 49.6187 11.1932C49.3526 10.9583 49.2178 10.6475 49.2178 10.2504C49.2178 9.86557 49.3207 9.56331 49.5182 9.3343C49.722 9.09818 49.9868 8.9231 50.316 8.8102C50.6541 8.69593 51.017 8.63843 51.4054 8.63843C51.8866 8.63843 52.2808 8.72031 52.5925 8.8785L52.5925 8.87851L52.5936 8.87903C52.9057 9.03274 53.1466 9.25762 53.3186 9.55517L53.319 9.55576C53.4446 9.76968 53.5357 10.0216 53.5909 10.313C53.6354 10.5483 53.8604 10.7254 54.1081 10.6737L55.0092 10.4858C55.2301 10.4398 55.3823 10.2217 55.322 9.99422C55.1951 9.51574 54.9939 9.0936 54.7174 8.72916C54.3867 8.28657 53.9497 7.94672 53.4091 7.70917C52.8716 7.46592 52.2298 7.34629 51.4866 7.34629C50.8415 7.34629 50.2301 7.44634 49.6532 7.64701L49.6529 7.6471C49.0765 7.84936 48.6035 8.16913 48.2368 8.60706L48.2364 8.60759C47.8689 9.05266 47.6896 9.63044 47.6896 10.3316C47.6896 10.8801 47.7952 11.3397 48.0137 11.7039L48.0137 11.704L48.0143 11.7048C48.2331 12.061 48.5066 12.3453 48.8351 12.5558C49.1571 12.762 49.4899 12.9185 49.8336 13.0247L49.834 13.0248C50.175 13.1285 50.4749 13.2104 50.7336 13.2701L50.7342 13.2702L52.1216 13.5802L52.1216 13.5802C52.662 13.7008 53.0782 13.892 53.3769 14.1488L53.3769 14.1488L53.3782 14.1498C53.6682 14.3908 53.8218 14.7663 53.8218 15.2979C53.8218 15.6951 53.7298 16.0352 53.5493 16.322L53.5487 16.323C53.3731 16.6095 53.116 16.8331 52.7727 16.993L52.7722 16.9932C52.4348 17.1526 52.0173 17.2346 51.5161 17.2346C50.6887 17.2346 50.0576 17.0066 49.6088 16.5625C49.2258 16.1834 48.9897 15.6614 48.9073 14.9874C48.8771 14.7405 48.6464 14.5514 48.3916 14.6038L47.4791 14.7914C47.2605 14.8364 47.1099 15.0487 47.1605 15.2736C47.299 15.8904 47.5328 16.4302 47.8633 16.891L47.8635 16.8914C48.248 17.4226 48.7514 17.8295 49.3716 18.1119Z" fill="#252D29" stroke="#252D29" stroke-width="0.2"/>
<path d="M42.107 17.5339V17.9316C42.107 18.1622 42.294 18.3493 42.5247 18.3493H46.0365C46.2672 18.3493 46.4542 18.1622 46.4542 17.9316V17.5339C46.4542 17.3032 46.2672 17.1162 46.0365 17.1162H45.2625C45.1422 17.1162 45.0448 17.0187 45.0448 16.8984V8.97386C45.0448 8.85362 45.1422 8.75615 45.2625 8.75615H46.0365C46.2672 8.75615 46.4542 8.56914 46.4542 8.33844V7.94075C46.4542 7.71006 46.2672 7.52305 46.0365 7.52305H42.5247C42.294 7.52305 42.107 7.71006 42.107 7.94075V8.33844C42.107 8.56914 42.294 8.75615 42.5247 8.75615H43.2988C43.419 8.75615 43.5165 8.85362 43.5165 8.97386V16.8984C43.5165 17.0187 43.419 17.1162 43.2988 17.1162H42.5247C42.294 17.1162 42.107 17.3032 42.107 17.5339Z" fill="#252D29" stroke="#252D29" stroke-width="0.2"/>
<path d="M39.8041 7.80026L36.6445 16.6471L33.4577 7.7992C33.398 7.63351 33.2408 7.52305 33.0647 7.52305H32.3319C32.0394 7.52305 31.8375 7.81594 31.9415 8.08932L35.7436 18.0801C35.8053 18.2422 35.9606 18.3493 36.134 18.3493H37.1275C37.3009 18.3493 37.4562 18.2422 37.5179 18.0801L41.32 8.08932C41.424 7.81594 41.2221 7.52305 40.9296 7.52305H40.1975C40.0209 7.52305 39.8635 7.63402 39.8041 7.80026Z" fill="#252D29" stroke="#252D29" stroke-width="0.2"/>
</svg>
