<svg width="470" height="58" viewBox="0 0 470 58" fill="none" xmlns="http://www.w3.org/2000/svg">
<path d="M38.4432 2.90814C38.509 2.69428 38.7065 2.54834 38.9303 2.54834H47.8887C48.236 2.54834 48.4816 2.88813 48.3727 3.21792L32.0358 52.6677C31.9669 52.8765 31.7718 53.0175 31.5519 53.0175H17.0493C16.8295 53.0175 16.6344 52.8765 16.5654 52.6677L0.228535 3.21792C0.119581 2.88813 0.365176 2.54834 0.712497 2.54834H9.58057C9.80466 2.54834 10.0025 2.6947 10.068 2.90899L23.7251 47.5738C23.872 48.0542 24.5519 48.0548 24.6996 47.5746L38.4432 2.90814Z" fill="#171D1C"/>
<path d="M78.2301 45.2185C78.5116 45.2185 78.7397 45.4467 78.7397 45.7282V52.5078C78.7397 52.7893 78.5116 53.0175 78.2301 53.0175H56.7489C56.4675 53.0175 56.2393 52.7893 56.2393 52.5078V45.7282C56.2393 45.4467 56.4675 45.2185 56.7489 45.2185H62.5425C62.824 45.2185 63.0522 44.9903 63.0522 44.7089V10.9466C63.0522 10.6651 62.824 10.4369 62.5425 10.4369H56.7489C56.4675 10.4369 56.2393 10.2088 56.2393 9.92726V3.05803C56.2393 2.77654 56.4675 2.54834 56.7489 2.54834H78.2301C78.5116 2.54834 78.7397 2.77654 78.7397 3.05803V9.92726C78.7397 10.2088 78.5116 10.4369 78.2301 10.4369H72.6158C72.3343 10.4369 72.1061 10.6651 72.1061 10.9466V44.7089C72.1061 44.9903 72.3343 45.2185 72.6158 45.2185H78.2301Z" fill="#171D1C"/>
<path fill-rule="evenodd" clip-rule="evenodd" d="M100.624 53.9139C103.313 54.5712 106.032 54.8999 108.781 54.8999C114.817 54.8999 119.777 53.7346 123.662 51.4039C127.546 49.0134 129.608 45.6966 129.847 41.4535C130.027 38.4654 129.578 36.045 128.503 34.1924C127.427 32.28 125.933 30.7859 124.02 29.7102C122.108 28.5747 119.987 27.6783 117.656 27.0209C116.425 26.6423 115.195 26.2971 113.965 25.9851C113.788 25.9404 113.602 25.9939 113.475 26.1244L108.016 31.7597C107.741 32.0438 107.88 32.52 108.264 32.6154C110.099 33.0716 111.795 33.5673 113.353 34.1027C115.325 34.7003 116.879 35.5071 118.014 36.5231C119.21 37.4793 119.807 38.7941 119.807 40.4674C119.807 41.9614 118.941 43.3659 117.208 44.6806C115.534 45.9954 112.935 46.6528 109.409 46.6528C106.181 46.6528 103.612 46.2344 101.699 45.3978C99.8467 44.5611 98.4722 43.575 97.5757 42.4395C96.7391 41.3041 96.2012 40.2582 95.9622 39.302C95.8154 38.6782 95.7136 38.1895 95.657 37.8361C95.6124 37.5581 95.3754 37.3299 95.0939 37.3299H86.8897C86.6045 37.3299 86.3742 37.5642 86.3857 37.8493C86.5044 40.7955 87.1566 43.3416 88.3425 45.4874C89.5975 47.6986 91.3007 49.4915 93.4522 50.866C95.6036 52.2405 97.9941 53.2565 100.624 53.9139ZM107.673 24.5579C108.058 24.652 108.199 25.1294 107.923 25.4141L102.58 30.9299C102.451 31.0627 102.26 31.1155 102.082 31.0674C101.419 30.8888 100.754 30.7054 100.086 30.517C97.8148 29.7999 95.7231 28.8735 93.8107 27.7381C91.9581 26.5428 90.4939 25.0189 89.4182 23.1663C88.3425 21.3136 87.8644 18.953 87.9839 16.0845C88.2827 11.8413 90.3146 8.52455 94.0797 6.13406C97.8447 3.74358 102.835 2.54834 109.05 2.54834C112.636 2.54834 115.953 3.20572 119 4.52049C122.108 5.77549 124.588 7.68788 126.441 10.2576C128.27 12.6586 129.225 15.7157 129.304 19.429C129.31 19.7104 129.081 19.9391 128.8 19.9391H120.944C120.663 19.9391 120.436 19.7108 120.424 19.4296C120.353 17.8106 119.938 16.4864 119.18 15.457C118.343 14.2617 117.267 13.3653 115.953 12.7677C114.698 12.1103 113.353 11.6919 111.919 11.5127C110.484 11.2736 109.199 11.1541 108.064 11.1541C105.076 11.1541 102.596 11.6621 100.624 12.678C98.7112 13.694 97.755 15.188 97.755 17.1602C97.6953 18.8335 98.263 20.1782 99.4582 21.1941C100.653 22.2101 102.237 23.0169 104.209 23.6145C105.308 23.9475 106.463 24.262 107.673 24.5579Z" fill="#FE5F00"/>
<path d="M159.522 45.2185C159.803 45.2185 160.031 45.4467 160.031 45.7282V52.5078C160.031 52.7893 159.803 53.0175 159.522 53.0175H138.04C137.759 53.0175 137.531 52.7893 137.531 52.5078V45.7282C137.531 45.4467 137.759 45.2185 138.04 45.2185H143.834C144.115 45.2185 144.344 44.9903 144.344 44.7089V10.9466C144.344 10.6651 144.115 10.4369 143.834 10.4369H138.04C137.759 10.4369 137.531 10.2088 137.531 9.92726V3.05803C137.531 2.77654 137.759 2.54834 138.04 2.54834H159.522C159.803 2.54834 160.031 2.77654 160.031 3.05803V9.92726C160.031 10.2088 159.803 10.4369 159.522 10.4369H153.907C153.626 10.4369 153.398 10.6651 153.398 10.9466V44.7089C153.398 44.9903 153.626 45.2185 153.907 45.2185H159.522Z" fill="#171D1C"/>
<path d="M192.777 55.1689C184.649 55.1689 178.434 52.8083 174.131 48.0871C169.828 43.3061 167.677 36.8817 167.677 28.8138C167.677 23.495 168.603 18.8933 170.456 15.0087C172.308 11.0644 175.087 8.01658 178.793 5.86514C182.558 3.65394 187.219 2.54834 192.777 2.54834C201.024 2.54834 207.269 4.93883 211.512 9.7198C215.755 14.441 217.877 20.8057 217.877 28.8138C217.877 34.0131 216.921 38.6148 215.008 42.6189C213.096 46.5632 210.287 49.6409 206.582 51.8521C202.877 54.0633 198.275 55.1689 192.777 55.1689ZM192.687 46.3839C198.066 46.3839 202.1 44.7105 204.789 41.3639C207.538 38.0172 208.913 33.8338 208.913 28.8138C208.913 25.4074 208.315 22.3894 207.12 19.7598C205.924 17.0705 204.132 14.9789 201.741 13.4848C199.351 11.931 196.333 11.1541 192.687 11.1541C187.428 11.1541 183.424 12.7677 180.675 15.9948C177.926 19.222 176.551 23.495 176.551 28.8138C176.551 32.1007 177.119 35.0888 178.255 37.7781C179.45 40.4077 181.243 42.4993 183.633 44.0532C186.024 45.607 189.042 46.3839 192.687 46.3839Z" fill="#171D1C"/>
<path d="M250.802 54.8104C246.081 54.8104 241.808 53.8542 237.983 51.9418C234.158 49.9696 231.11 47.0712 228.839 43.2464C226.628 39.4216 225.522 34.6406 225.522 28.9035C225.582 23.2858 226.718 18.5048 228.929 14.5605C231.14 10.6162 234.158 7.62812 237.983 5.59621C241.808 3.5643 246.17 2.54834 251.071 2.54834C255.732 2.54834 259.706 3.38501 262.993 5.05835C266.28 6.73169 268.91 9.00266 270.882 11.8712C272.801 14.581 274.081 17.6107 274.72 20.9603C274.779 21.2697 274.539 21.5527 274.225 21.5527H265.849C265.598 21.5527 265.386 21.3701 265.339 21.1238C264.885 18.698 263.924 16.7792 262.455 15.3673C260.961 13.8135 259.198 12.7378 257.166 12.1402C255.135 11.4828 253.103 11.1541 251.071 11.1541C245.752 11.1541 241.658 12.6481 238.79 15.6363C235.981 18.6244 234.576 22.8376 234.576 28.276C234.576 34.0729 235.951 38.5252 238.7 41.6328C241.509 44.7404 245.573 46.2942 250.891 46.2942C253.103 46.2942 255.254 45.9656 257.346 45.3082C259.437 44.591 261.23 43.4555 262.724 41.9017C264.138 40.3752 265.07 38.3674 265.521 35.8781C265.565 35.6309 265.778 35.4474 266.029 35.4474H274.487C274.804 35.4474 275.045 35.7341 274.982 36.0451C274.29 39.5102 272.983 42.6278 271.061 45.3978C269.089 48.2664 266.4 50.5672 262.993 52.3003C259.647 53.9737 255.583 54.8104 250.802 54.8104Z" fill="#171D1C"/>
<path d="M283.25 53.0175C282.968 53.0175 282.74 52.7893 282.74 52.5078V3.05803C282.74 2.77654 282.968 2.54834 283.25 2.54834H301.296C307.81 2.54834 312.89 3.65394 316.536 5.86514C320.181 8.01658 322.004 11.8414 322.004 17.3395C322.004 21.4631 321.018 24.8098 319.046 27.3795C317.074 29.8895 314.235 31.1445 310.53 31.1445C312.621 31.1445 314.175 31.6226 315.191 32.5788C316.267 33.4753 317.014 34.6108 317.432 35.9853C317.851 37.3598 318.149 38.7941 318.329 40.2882C318.508 41.7822 318.717 43.1269 318.956 44.3221C319.255 45.4576 319.793 46.2644 320.57 46.7425C321.29 47.154 322.342 47.1449 323.726 46.7152C324.067 46.6095 324.424 46.8553 324.424 47.212V51.5254C324.424 51.6757 324.359 51.8191 324.241 51.9127C323.145 52.7847 321.861 53.3621 320.39 53.645C318.837 54.0036 317.313 53.9139 315.819 53.3761C314.325 52.8382 313.07 51.7924 312.054 50.2386C311.038 48.625 310.53 46.3839 310.53 43.5153C310.53 40.8858 310.38 38.7941 310.081 37.2403C309.783 35.6267 309.036 34.4315 307.84 33.6546C306.645 32.8179 304.792 32.3099 302.282 32.1306C299.864 31.9003 296.559 31.8919 292.366 32.1053C292.096 32.1191 291.884 32.3427 291.884 32.6135V52.5078C291.884 52.7893 291.656 53.0175 291.374 53.0175H283.25ZM291.884 24.9873C291.884 25.2688 292.112 25.497 292.394 25.497H300.938C303.866 25.497 306.287 25.3775 308.199 25.1384C310.111 24.8396 311.516 24.1822 312.412 23.1663C313.368 22.0906 313.846 20.3874 313.846 18.0566C313.846 15.4869 313.279 13.6342 312.143 12.4987C311.008 11.3633 309.334 10.676 307.123 10.437C304.972 10.1381 302.312 9.98873 299.145 9.98873H292.394C292.112 9.98873 291.884 10.2169 291.884 10.4984V24.9873Z" fill="#171D1C"/>
<path d="M332.768 53.0175C332.423 53.0175 332.177 52.6815 332.282 52.3526L348.092 2.90281C348.16 2.69165 348.356 2.54834 348.578 2.54834H362.807C363.027 2.54834 363.222 2.68973 363.291 2.89892L379.54 52.3487C379.648 52.6783 379.403 53.0175 379.056 53.0175H370.367C370.143 53.0175 369.944 52.8703 369.879 52.6551L365.795 39.1266C365.73 38.9114 365.532 38.7642 365.307 38.7642H346.433C346.208 38.7642 346.01 38.9114 345.945 39.1266L341.861 52.6551C341.796 52.8703 341.597 53.0175 341.373 53.0175H332.768ZM356.316 8.01098C356.169 7.52882 355.486 7.52992 355.34 8.01257L348.404 31.0256C348.305 31.3528 348.55 31.6824 348.892 31.6824H362.846C363.189 31.6824 363.434 31.3515 363.334 31.024L356.316 8.01098Z" fill="#171D1C"/>
<path d="M396.37 52.5078C396.37 52.7893 396.141 53.0175 395.86 53.0175H387.915C387.633 53.0175 387.405 52.7893 387.405 52.5078V3.05803C387.405 2.77654 387.633 2.54834 387.915 2.54834H422.843C423.124 2.54834 423.352 2.77654 423.352 3.05803V9.92726C423.352 10.2088 423.124 10.437 422.843 10.437H396.879C396.598 10.437 396.37 10.6651 396.37 10.9466V22.298C396.37 22.5795 396.598 22.8077 396.879 22.8077H416.478C416.759 22.8077 416.988 23.0359 416.988 23.3174V29.7384C416.988 30.0199 416.759 30.2481 416.478 30.2481H396.879C396.598 30.2481 396.37 30.4763 396.37 30.7578V52.5078Z" fill="#171D1C"/>
<path d="M431.507 10.437C431.226 10.437 430.998 10.2088 430.998 9.92726V3.05803C430.998 2.77654 431.226 2.54834 431.507 2.54834H469.483C469.764 2.54834 469.992 2.77654 469.992 3.05803V9.92726C469.992 10.2088 469.764 10.437 469.483 10.437H455.532C455.25 10.437 455.022 10.6651 455.022 10.9466V52.5078C455.022 52.7893 454.794 53.0175 454.512 53.0175H446.388C446.107 53.0175 445.878 52.7893 445.878 52.5078V10.9466C445.878 10.6651 445.65 10.437 445.369 10.437H431.507Z" fill="#171D1C"/>
</svg>
