<svg width="382" height="46" viewBox="0 0 382 46" fill="none" xmlns="http://www.w3.org/2000/svg">
<path d="M362.851 45.2573C361.509 45.2573 360.421 44.1695 360.421 42.8276V7.74623C360.421 6.40431 359.333 5.31648 357.991 5.31648H346.764C345.501 5.31648 344.477 4.29227 344.477 3.02885V3.02885C344.477 1.76542 345.501 0.741211 346.764 0.741211H379.713C380.976 0.741211 382 1.76542 382 3.02885V3.02885C382 4.29227 380.976 5.31648 379.713 5.31648H368.424C367.082 5.31648 365.994 6.40432 365.994 7.74623V42.8276C365.994 44.1695 364.906 45.2573 363.564 45.2573H362.851Z" fill="#FCFEF0"/>
<path d="M315.082 45.2573C313.74 45.2573 312.652 44.1695 312.652 42.8276V3.17096C312.652 1.82905 313.74 0.741211 315.082 0.741211H338.941C340.204 0.741211 341.229 1.76542 341.229 3.02885V3.02885C341.229 4.29227 340.204 5.31648 338.941 5.31648H320.655C319.313 5.31648 318.225 6.40432 318.225 7.74623V16.6125C318.225 17.9544 319.313 19.0423 320.655 19.0423H336.65C337.913 19.0423 338.938 20.0665 338.938 21.3299V21.3299C338.938 22.5933 337.913 23.6176 336.65 23.6176H320.655C319.313 23.6176 318.225 24.7054 318.225 26.0473V42.8276C318.225 44.1695 317.137 45.2573 315.795 45.2573H315.082Z" fill="#FCFEF0"/>
<path d="M268.103 45.2573C266.364 45.2573 265.188 43.4833 265.865 41.8813L282.634 2.22466C283.014 1.3255 283.896 0.741211 284.872 0.741211H287.221C288.199 0.741211 289.081 1.32673 289.46 2.2273L306.174 41.8839C306.849 43.4856 305.673 45.2573 303.935 45.2573H303.292C302.301 45.2573 301.409 44.6553 301.038 43.7361L288.297 12.1316C287.48 10.1048 284.611 10.1028 283.791 12.1285L270.996 43.7392C270.625 44.6568 269.734 45.2573 268.744 45.2573H268.103ZM276.385 30.6659C275.121 30.6659 274.097 29.6417 274.097 28.3783V28.3783C274.097 27.1149 275.121 26.0907 276.385 26.0907H295.649C296.912 26.0907 297.936 27.1149 297.936 28.3783V28.3783C297.936 29.6417 296.912 30.6659 295.649 30.6659H276.385Z" fill="#FCFEF0"/>
<path d="M231.801 45.2573C230.459 45.2573 229.371 44.1695 229.371 42.8276V3.17096C229.371 1.82905 230.459 0.741211 231.801 0.741211H246.368C256.688 0.741211 261.848 4.64668 261.848 12.4576C261.848 20.3304 256.657 24.2667 246.275 24.2667H237.374C236.032 24.2667 234.944 25.3546 234.944 26.6965V42.8276C234.944 44.1695 233.856 45.2573 232.514 45.2573H231.801ZM257.001 45.2573C256.098 45.2573 255.27 44.7564 254.85 43.9567L245.573 26.2799C244.724 24.662 245.898 22.721 247.725 22.721H248.553C249.456 22.721 250.284 23.222 250.704 24.0217L259.981 41.6985C260.83 43.3164 259.656 45.2573 257.829 45.2573H257.001ZM234.944 17.2617C234.944 18.6036 236.032 19.6915 237.374 19.6915H246.368C249.506 19.6915 251.92 19.0835 253.613 17.8676C255.305 16.631 256.152 14.8586 256.152 12.5504C256.152 10.2215 255.305 8.43879 253.613 7.20223C251.92 5.94506 249.506 5.31648 246.368 5.31648H237.374C236.032 5.31648 234.944 6.40432 234.944 7.74623V17.2617Z" fill="#FCFEF0"/>
<path d="M204.217 46C200.006 46 196.312 45.0108 193.133 43.0323C189.975 41.0538 187.519 38.323 185.764 34.8401C184.01 31.3365 183.133 27.3177 183.133 22.7836C183.133 18.3732 183.969 14.4574 185.641 11.0363C187.333 7.61514 189.748 4.92563 192.885 2.96774C196.023 0.989247 199.779 0 204.155 0C208.592 0 212.473 1.14382 215.796 3.43145C218.541 5.32145 220.526 8.02737 221.75 11.5492C222.19 12.8155 221.364 14.129 220.059 14.436L218.858 14.7186C217.558 15.0245 216.273 14.2145 215.815 12.9597C214.896 10.446 213.579 8.5168 211.864 7.17204C209.676 5.44086 207.075 4.57527 204.062 4.57527C200.925 4.57527 198.241 5.36873 196.012 6.95565C193.804 8.54256 192.111 10.7168 190.935 13.4785C189.758 16.2401 189.17 19.4037 189.17 22.9691C189.17 26.5963 189.769 29.8011 190.966 32.5833C192.184 35.3656 193.886 37.5399 196.074 39.1062C198.262 40.6519 200.842 41.4247 203.814 41.4247C207.055 41.4247 209.851 40.4458 212.204 38.4879C213.947 37.0382 215.219 35.1704 216.022 32.8845C216.494 31.5412 217.873 30.6495 219.247 31.0254L220.466 31.359C221.754 31.7115 222.531 33.0447 222.057 34.2933C220.746 37.7546 218.71 40.4718 215.951 42.4449C212.607 44.815 208.696 46 204.217 46Z" fill="#FCFEF0"/>
<path d="M154.876 46C150.438 46 146.599 45.0726 143.359 43.2177C140.139 41.3423 137.652 38.6837 135.898 35.2419C134.164 31.8002 133.297 27.7195 133.297 23C133.297 18.2599 134.164 14.1792 135.898 10.7581C137.652 7.31631 140.139 4.66801 143.359 2.81317C146.599 0.937724 150.438 0 154.876 0C159.314 0 163.143 0.937724 166.362 2.81317C169.603 4.66801 172.09 7.31631 173.824 10.7581C175.578 14.1792 176.455 18.2599 176.455 23C176.455 27.7195 175.578 31.8002 173.824 35.2419C172.09 38.6837 169.603 41.3423 166.362 43.2177C163.143 45.0726 159.314 46 154.876 46ZM154.876 41.4247C158.075 41.4247 160.831 40.6828 163.142 39.1989C165.475 37.6944 167.271 35.5614 168.53 32.7997C169.789 30.0381 170.418 26.7715 170.418 23C170.418 19.2079 169.789 15.9413 168.53 13.2003C167.271 10.4386 165.475 8.31586 163.142 6.83199C160.831 5.32751 158.075 4.57527 154.876 4.57527C151.698 4.57527 148.942 5.32751 146.61 6.83199C144.277 8.31586 142.482 10.4386 141.223 13.2003C139.964 15.9413 139.334 19.2079 139.334 23C139.334 26.7715 139.964 30.0381 141.223 32.7997C142.482 35.5614 144.277 37.6944 146.61 39.1989C148.942 40.6828 151.698 41.4247 154.876 41.4247Z" fill="#FCFEF0"/>
<path d="M113.652 45.2573C112.457 45.2573 111.488 44.2885 111.488 43.0934V43.0934C111.488 41.8982 112.457 40.9294 113.652 40.9294H114.972C116.314 40.9294 117.402 39.8415 117.402 38.4996V7.49891C117.402 6.157 116.314 5.06917 114.972 5.06917H113.652C112.457 5.06917 111.488 4.10032 111.488 2.90519V2.90519C111.488 1.71006 112.457 0.741211 113.652 0.741211H126.724C127.919 0.741211 128.888 1.71006 128.888 2.90519V2.90519C128.888 4.10032 127.919 5.06917 126.724 5.06917H125.404C124.062 5.06917 122.975 6.157 122.975 7.49892V38.4996C122.975 39.8415 124.062 40.9294 125.404 40.9294H126.724C127.919 40.9294 128.888 41.8982 128.888 43.0934V43.0934C128.888 44.2885 127.919 45.2573 126.724 45.2573H113.652Z" fill="#FCFEF0"/>
<path d="M90.9892 46C87.5629 46 84.5701 45.4332 82.0107 44.2997C79.472 43.1456 77.4183 41.4866 75.8496 39.3226C74.6856 37.7015 73.8114 35.8365 73.2271 33.7275C72.8778 32.4671 73.7374 31.2312 75.0186 30.9682L76.5449 30.6548C78.0135 30.3533 79.3782 31.4502 79.6802 32.9187C80.1527 35.2165 81.105 37.0729 82.537 38.4879C84.5185 40.4458 87.2843 41.4247 90.8344 41.4247C92.9809 41.4247 94.7973 41.0744 96.2834 40.3737C97.7901 39.6729 98.9356 38.6837 99.7199 37.4059C100.525 36.1281 100.927 34.6237 100.927 32.8925C100.927 30.5842 100.257 28.8737 98.915 27.7608C97.594 26.6272 95.7777 25.8029 93.466 25.2876L87.6455 23.9892C86.5722 23.7419 85.3235 23.4019 83.8993 22.9691C82.4958 22.5363 81.1335 21.8974 79.8125 21.0524C78.4916 20.2074 77.3873 19.0636 76.4998 17.621C75.6329 16.1783 75.1995 14.3338 75.1995 12.0874C75.1995 9.22267 75.9322 6.90412 77.3976 5.13172C78.8837 3.35932 80.8033 2.06093 83.1562 1.23656C85.5299 0.412186 88.048 0 90.7105 0C93.7859 0 96.4175 0.494623 98.6054 1.48387C100.814 2.45251 102.589 3.83333 103.931 5.62634C104.852 6.83935 105.571 8.21271 106.086 9.74642C106.508 11.003 105.646 12.2731 104.348 12.5433L102.832 12.8589C101.407 13.1557 100.077 12.1251 99.6616 10.7298C99.4318 9.95764 99.1313 9.25603 98.7602 8.625C97.9965 7.306 96.9232 6.30645 95.5403 5.62634C94.1574 4.92563 92.434 4.57527 90.37 4.57527C88.6981 4.57527 87.1295 4.82258 85.664 5.31721C84.2192 5.81183 83.0427 6.58468 82.1346 7.63575C81.2264 8.68683 80.7723 10.0573 80.7723 11.7473C80.7723 13.5197 81.3812 14.9418 82.599 16.0134C83.8374 17.0645 85.8911 17.9198 88.76 18.5793L94.6425 19.9395C96.7271 20.4135 98.6983 21.1246 100.556 22.0726C102.413 23.0206 103.92 24.3499 105.076 26.0605C106.232 27.7504 106.81 29.9866 106.81 32.7688C106.81 35.5511 106.17 37.9315 104.89 39.9099C103.631 41.8884 101.815 43.4032 99.4413 44.4543C97.0883 45.4848 94.271 46 90.9892 46Z" fill="#FCFEF0"/>
<path d="M53.9374 45.2573C52.7423 45.2573 51.7734 44.2885 51.7734 43.0934V43.0934C51.7734 41.8982 52.7423 40.9294 53.9374 40.9294H55.2571C56.599 40.9294 57.6868 39.8415 57.6868 38.4996V7.49891C57.6868 6.157 56.599 5.06917 55.2571 5.06917H53.9374C52.7423 5.06917 51.7734 4.10032 51.7734 2.90519V2.90519C51.7734 1.71006 52.7423 0.741211 53.9374 0.741211H67.0091C68.2042 0.741211 69.1731 1.71006 69.1731 2.90519V2.90519C69.1731 4.10032 68.2042 5.06917 67.0091 5.06917H65.6894C64.3475 5.06917 63.2597 6.157 63.2597 7.49892V38.4996C63.2597 39.8415 64.3475 40.9294 65.6894 40.9294H67.0091C68.2042 40.9294 69.1731 41.8982 69.1731 43.0934V43.0934C69.1731 44.2885 68.2042 45.2573 67.0091 45.2573H53.9374Z" fill="#FCFEF0"/>
<path fill-rule="evenodd" clip-rule="evenodd" d="M18.7056 42.0776C19.825 44.2376 22.055 45.5935 24.4878 45.5935H24.8509C27.2885 45.5935 29.522 44.2323 30.6392 42.0659L38.676 26.4813C35.2308 27.5658 32.3805 27.4548 29.8873 26.3816C29.6336 26.2724 29.3885 26.1552 29.1515 26.0314L26.0898 32.442C25.4989 33.6791 23.737 33.6768 23.1495 32.4381L17.0338 19.5444C15.2237 20.1599 12.7532 21.4828 9.3599 24.0446L18.7056 42.0776ZM6.77908 19.0648C9.74661 16.8899 12.3336 15.3989 14.6508 14.5204L9.09027 2.79714C8.30066 1.13242 6.6229 0.0712891 4.7804 0.0712891C1.20412 0.0712891 -1.1003 3.86106 0.545266 7.03627L6.77908 19.0648ZM31.5403 21.03C31.7174 21.1303 31.8954 21.2192 32.0759 21.2969C33.3789 21.8577 35.51 22.1305 39.654 20.1348C40.4124 19.7696 41.2547 19.781 41.9693 20.0949L48.7378 6.96992C50.3614 3.82152 48.0758 0.0712891 44.5334 0.0712891C42.7108 0.0712891 41.0503 1.11838 40.2648 2.76304L31.5403 21.03Z" fill="#FCFEF0"/>
</svg>
