<svg width="270" height="35" viewBox="0 0 270 35" fill="none" xmlns="http://www.w3.org/2000/svg">
<path d="M253.219 5.46575V32.2474C253.219 32.9417 253.782 33.5046 254.476 33.5046H256.562C257.256 33.5046 257.819 32.9417 257.819 32.2474V5.46575C257.819 5.10389 258.112 4.81055 258.474 4.81055H268.044C268.738 4.81055 269.301 4.24771 269.301 3.55342V2.17882C269.301 1.48453 268.738 0.921698 268.044 0.921698H243.038C242.344 0.921698 241.781 1.48453 241.781 2.17882V3.55342C241.781 4.24771 242.344 4.81055 243.038 4.81055H252.564C252.926 4.81055 253.219 5.10389 253.219 5.46575Z" fill="white" stroke="white" stroke-width="0.601916"/>
<path d="M218.949 2.17882V32.2474C218.949 32.9417 219.512 33.5046 220.206 33.5046H222.292C222.986 33.5046 223.549 32.9417 223.549 32.2474V18.6135C223.549 18.2516 223.842 17.9583 224.204 17.9583H237.15C237.844 17.9583 238.407 17.3954 238.407 16.7011V15.3265C238.407 14.6323 237.844 14.0694 237.15 14.0694H224.204C223.842 14.0694 223.549 13.7761 223.549 13.4142V5.46575C223.549 5.10389 223.842 4.81055 224.204 4.81055H238.793C239.488 4.81055 240.05 4.24771 240.05 3.55342V2.17882C240.05 1.48453 239.488 0.921698 238.793 0.921698H220.206C219.512 0.921698 218.949 1.48453 218.949 2.17882Z" fill="white" stroke="white" stroke-width="0.601916"/>
<path d="M189.418 32.7185L193.337 23.0219H206.906L210.808 32.7169C211 33.1928 211.462 33.5046 211.975 33.5046H214.153C215.052 33.5046 215.661 32.5884 215.312 31.7598L202.658 1.69119C202.461 1.22492 202.005 0.921698 201.499 0.921698H198.77C198.265 0.921698 197.809 1.22429 197.612 1.68982L184.916 31.7584C184.566 32.5872 185.175 33.5046 186.074 33.5046H188.252C188.765 33.5046 189.226 33.1936 189.418 32.7185ZM200.741 7.70931L205.34 19.1331H194.908L199.526 7.70848C199.747 7.16182 200.521 7.16235 200.741 7.70931Z" fill="white" stroke="white" stroke-width="0.601916"/>
<path d="M176.718 6.10582L176.72 6.10722C177.847 6.93194 178.418 8.11696 178.418 9.70649C178.418 11.2797 177.848 12.4576 176.721 13.2829C175.578 14.1048 173.918 14.5358 171.701 14.5358H164.462C164.1 14.5358 163.807 14.2425 163.807 13.8806V5.46575C163.807 5.10389 164.1 4.81055 164.462 4.81055H171.701C173.917 4.81055 175.576 5.256 176.718 6.10582ZM164.462 18.4247H170.199C170.216 18.4677 170.236 18.5105 170.258 18.5529L177.74 32.8309C177.957 33.2451 178.386 33.5046 178.853 33.5046H181.225C182.17 33.5046 182.777 32.501 182.339 31.6639L175.262 18.1591C177.29 17.831 178.938 17.1966 180.195 16.2424C182.148 14.7594 183.107 12.5398 183.107 9.63986C183.107 6.76188 182.153 4.55894 180.211 3.08711C178.285 1.62721 175.432 0.921698 171.701 0.921698H160.464C159.77 0.921698 159.207 1.48453 159.207 2.17882V32.2474C159.207 32.9417 159.77 33.5046 160.464 33.5046H162.549C163.244 33.5046 163.807 32.9417 163.807 32.2474V19.0799C163.807 18.718 164.1 18.4247 164.462 18.4247Z" fill="white" stroke="white" stroke-width="0.601916"/>
<path d="M133.326 31.8642L133.327 31.8647C135.661 33.3194 138.368 34.0423 141.437 34.0423C144.707 34.0423 147.575 33.1749 150.029 31.4327L150.03 31.432C152.261 29.8348 153.843 27.5795 154.781 24.6836C155 24.0104 154.589 23.3209 153.928 23.1396L151.472 22.4666C150.756 22.2701 150.053 22.7337 149.869 23.4202C149.34 25.3878 148.374 26.9473 146.975 28.1133C145.344 29.4721 143.407 30.1534 141.149 30.1534C139.072 30.1534 137.284 29.6138 135.771 28.5437C134.251 27.4541 133.062 25.938 132.208 23.9829C131.368 22.0285 130.944 19.7682 130.944 17.1956C130.944 14.6672 131.361 12.4357 132.186 10.4953C133.011 8.55669 134.192 7.04072 135.727 5.93611C137.268 4.83775 139.129 4.28223 141.326 4.28223C143.426 4.28223 145.224 4.88459 146.736 6.0827L146.737 6.08355C148.071 7.13065 149.07 8.70517 149.717 10.8355C149.913 11.4796 150.571 11.9001 151.249 11.7405L153.637 11.1779C154.307 11.0201 154.743 10.3412 154.544 9.65881C153.68 6.70319 152.14 4.44619 149.914 2.91176C147.475 1.23022 144.631 0.393378 141.393 0.393378C138.208 0.393378 135.455 1.11497 133.148 2.57156C130.849 4.00872 129.08 5.98372 127.842 8.48965L127.841 8.49097C126.619 10.9959 126.012 13.8554 126.012 17.0624C126.012 20.359 126.649 23.2935 127.931 25.8585L127.931 25.8591C129.213 28.408 131.012 30.4122 133.326 31.8642Z" fill="white" stroke="white" stroke-width="0.601916"/>
<path d="M92.1788 26.1478L92.1794 26.1491C93.4631 28.6712 95.2869 30.6249 97.6485 32.0025L97.6505 32.0036C100.029 33.3668 102.836 34.0423 106.062 34.0423C109.288 34.0423 112.089 33.3668 114.452 32.0032L114.453 32.0029C116.829 30.6254 118.654 28.6714 119.923 26.1485C121.207 23.6254 121.843 20.6452 121.843 17.2178C121.843 13.7761 121.207 10.7956 119.923 8.2868C118.654 5.76418 116.829 3.81755 114.453 2.45486C112.089 1.07631 109.288 0.393378 106.062 0.393378C102.836 0.393378 100.028 1.07646 97.6495 2.45482C95.2873 3.81768 93.4632 5.76433 92.1794 8.28655L92.1791 8.28718C90.9096 10.7959 90.2811 13.7762 90.2811 17.2178C90.2811 20.645 90.9097 23.6249 92.1788 26.1478ZM115.583 10.3023L115.583 10.303C116.464 12.2241 116.91 14.526 116.91 17.2178C116.91 19.8945 116.464 22.1968 115.583 24.1334C114.701 26.07 113.449 27.5556 111.829 28.6023C110.227 29.6322 108.309 30.1534 106.062 30.1534C103.831 30.1534 101.912 29.6326 100.295 28.6021C98.6749 27.5555 97.4232 26.0699 96.5416 24.1334C95.66 22.1968 95.2139 19.8945 95.2139 17.2178C95.2139 14.526 95.6601 12.2241 96.5413 10.303L96.5416 10.3023C97.4232 8.36581 98.6747 6.88803 100.294 5.85635L100.295 5.85532C101.913 4.81029 103.831 4.28223 106.062 4.28223C108.308 4.28223 110.226 4.81051 111.828 5.85466L111.828 5.85467L111.83 5.85634C113.45 6.88803 114.701 8.36581 115.583 10.3023Z" fill="white" stroke="white" stroke-width="0.601916"/>
<path d="M74.6248 31.0505V32.2474C74.6248 32.9417 75.1877 33.5046 75.8819 33.5046H86.4511C87.1454 33.5046 87.7082 32.9417 87.7082 32.2474V31.0505C87.7082 30.3562 87.1454 29.7934 86.4511 29.7934H84.1215C83.7596 29.7934 83.4663 29.5 83.4663 29.1382V5.28808C83.4663 4.92622 83.7596 4.63287 84.1215 4.63287H86.4511C87.1454 4.63287 87.7082 4.07004 87.7082 3.37575V2.17882C87.7082 1.48453 87.1454 0.921698 86.4511 0.921698H75.8819C75.1877 0.921698 74.6248 1.48453 74.6248 2.17882V3.37575C74.6248 4.07004 75.1877 4.63287 75.8819 4.63287H78.2115C78.5734 4.63287 78.8667 4.92622 78.8667 5.28808V29.1382C78.8667 29.5 78.5734 29.7934 78.2115 29.7934H75.8819C75.1877 29.7934 74.6248 30.3562 74.6248 31.0505Z" fill="white" stroke="white" stroke-width="0.601916"/>
<path d="M70.6025 19.2473C69.7447 17.9762 68.6251 16.9874 67.2479 16.2836C65.8927 15.5909 64.4552 15.0717 62.9362 14.7258C62.9361 14.7258 62.9359 14.7257 62.9358 14.7257L58.717 13.7487L58.7166 13.7487C56.6749 13.2786 55.2594 12.6781 54.4264 11.971C53.6255 11.2642 53.22 10.3287 53.22 9.13375C53.22 7.97548 53.5295 7.06579 54.1241 6.37656C54.7373 5.66589 55.5343 5.13898 56.5252 4.79918C57.5428 4.45529 58.6351 4.28223 59.804 4.28223C61.2523 4.28223 62.4386 4.52865 63.3768 5.00475L63.3768 5.00477L63.38 5.00636C64.3193 5.46895 65.0446 6.14578 65.5623 7.04128L65.5633 7.04306C65.9414 7.68689 66.2157 8.44498 66.3817 9.32202C66.5157 10.0301 67.1927 10.5632 67.9381 10.4078L70.6503 9.84222C71.3153 9.70356 71.7733 9.04742 71.5917 8.36266C71.2098 6.92266 70.6042 5.65217 69.7723 4.55535C68.7768 3.2233 67.4614 2.20046 65.8344 1.48551C64.2169 0.75341 62.285 0.393378 60.0483 0.393378C58.1067 0.393378 56.2667 0.694501 54.5303 1.29844L54.5295 1.29871C52.7946 1.90744 51.3709 2.86982 50.2674 4.18783L50.2674 4.18783L50.2661 4.18942C49.1602 5.52891 48.6203 7.26781 48.6203 9.37805C48.6203 11.0287 48.9382 12.4119 49.596 13.5083L49.596 13.5083L49.5977 13.511C50.2561 14.5829 51.0794 15.4386 52.0682 16.0721C53.0371 16.6928 54.0389 17.1637 55.0734 17.4832L55.0746 17.4835C56.1007 17.7958 57.0034 18.0421 57.7819 18.2218L57.784 18.2222L61.9594 19.155L61.9594 19.155C63.5861 19.5181 64.8387 20.0937 65.7377 20.8663L65.7377 20.8663L65.7416 20.8695C66.6144 21.5946 67.0765 22.7248 67.0765 24.3247C67.0765 25.5202 66.7996 26.5437 66.2566 27.407L66.2547 27.41C65.7263 28.2722 64.9523 28.9452 63.919 29.4265L63.9175 29.4271C62.902 29.9067 61.6456 30.1534 60.1372 30.1534C57.647 30.1534 55.7474 29.4673 54.3967 28.1306C53.2439 26.9899 52.5335 25.4188 52.2854 23.3902C52.1945 22.6471 51.5001 22.0781 50.7333 22.2358L47.9869 22.8004C47.3289 22.9357 46.8759 23.5748 47.0279 24.2516C47.4448 26.108 48.1486 27.7324 49.1431 29.1196L49.1439 29.1206C50.3011 30.7194 51.8162 31.944 53.6827 32.7938L53.6854 32.7949L70.2203 29.3662L70.4731 29.5294C70.4733 29.5292 70.4735 29.5289 70.4737 29.5286C71.4281 28.0505 71.8983 26.2815 71.8983 24.2359C71.8983 22.198 71.4758 20.5264 70.6025 19.2473ZM70.6025 19.2473C70.6027 19.2476 70.6029 19.2479 70.6031 19.2482L70.3536 19.4165L70.6021 19.2468C70.6022 19.247 70.6024 19.2472 70.6025 19.2473Z" fill="white" stroke="white" stroke-width="0.601916"/>
<path d="M31.7889 31.0505V32.2474C31.7889 32.9417 32.3517 33.5046 33.046 33.5046H43.6151C44.3094 33.5046 44.8723 32.9417 44.8723 32.2474V31.0505C44.8723 30.3562 44.3094 29.7934 43.6151 29.7934H41.2855C40.9237 29.7934 40.6303 29.5 40.6303 29.1382V5.28808C40.6303 4.92622 40.9237 4.63287 41.2855 4.63287H43.6151C44.3094 4.63287 44.8723 4.07004 44.8723 3.37575V2.17882C44.8723 1.48453 44.3094 0.921698 43.6151 0.921698H33.046C32.3517 0.921698 31.7889 1.48453 31.7889 2.17882V3.37575C31.7889 4.07004 32.3517 4.63287 33.046 4.63287H35.3756C35.7375 4.63287 36.0308 4.92622 36.0308 5.28808V29.1382C36.0308 29.5 35.7375 29.7934 35.3756 29.7934H33.046C32.3517 29.7934 31.7889 30.3562 31.7889 31.0505Z" fill="white" stroke="white" stroke-width="0.601916"/>
<path d="M24.8761 1.756L15.3666 28.3818L5.77509 1.75281C5.59547 1.25414 5.12238 0.921698 4.59235 0.921698H2.38695C1.50662 0.921698 0.898915 1.80319 1.21203 2.62595L12.6551 32.6946C12.8407 33.1822 13.3083 33.5046 13.8301 33.5046H16.8204C17.3421 33.5046 17.8097 33.1822 17.9953 32.6946L29.4384 2.62596C29.7515 1.80319 29.1438 0.921698 28.2635 0.921698H26.06C25.5287 0.921698 25.0548 1.25568 24.8761 1.756Z" fill="white" stroke="white" stroke-width="0.601916"/>
</svg>
