<svg width="157" height="28" viewBox="0 0 157 28" fill="none" xmlns="http://www.w3.org/2000/svg">
<mask id="path-1-outside-1_782_443" maskUnits="userSpaceOnUse" x="0" y="7.67737" width="21" height="20" fill="black">
<rect fill="white" y="7.67737" width="21" height="20"/>
<path fill-rule="evenodd" clip-rule="evenodd" d="M19.7165 8.67737H15.9913L14.9952 11.4763C16.0666 12.1496 17.0406 13.0904 17.8871 14.2621L19.7165 9.35879V8.67737ZM16.2478 18.6558C15.5299 16.9638 14.6435 15.7895 13.7311 15.0284L10.4945 24.123H10.4037L7.30959 15.7739C6.44045 16.7571 5.63499 18.166 5.02761 20.0992L7.72339 27.2575H13.0385L16.2478 18.6558ZM3.22647 15.3164C4.00477 14.0052 4.92138 12.9182 5.94556 12.0932L4.67969 8.67737H1V9.40422L3.22647 15.3164Z"/>
</mask>
<path fill-rule="evenodd" clip-rule="evenodd" d="M19.7165 8.67737H15.9913L14.9952 11.4763C16.0666 12.1496 17.0406 13.0904 17.8871 14.2621L19.7165 9.35879V8.67737ZM16.2478 18.6558C15.5299 16.9638 14.6435 15.7895 13.7311 15.0284L10.4945 24.123H10.4037L7.30959 15.7739C6.44045 16.7571 5.63499 18.166 5.02761 20.0992L7.72339 27.2575H13.0385L16.2478 18.6558ZM3.22647 15.3164C4.00477 14.0052 4.92138 12.9182 5.94556 12.0932L4.67969 8.67737H1V9.40422L3.22647 15.3164Z" fill="#F8F32B"/>
<path d="M15.9913 8.67737V8.31683H15.737L15.6517 8.55648L15.9913 8.67737ZM19.7165 8.67737H20.077V8.31683H19.7165V8.67737ZM14.9952 11.4763L14.6556 11.3555L14.5586 11.6278L14.8034 11.7816L14.9952 11.4763ZM17.8871 14.2621L17.5948 14.4732L17.9894 15.0193L18.2249 14.3881L17.8871 14.2621ZM19.7165 9.35879L20.0543 9.48482L20.077 9.42386V9.35879H19.7165ZM16.2478 18.6558L16.5856 18.7819L16.6358 18.6473L16.5797 18.515L16.2478 18.6558ZM13.7311 15.0284L13.9621 14.7515L13.5649 14.4202L13.3915 14.9075L13.7311 15.0284ZM10.4945 24.123V24.4835H10.7489L10.8342 24.2439L10.4945 24.123ZM10.4037 24.123L10.0656 24.2483L10.1528 24.4835H10.4037V24.123ZM7.30959 15.7739L7.64766 15.6486L7.43837 15.0839L7.03946 15.5351L7.30959 15.7739ZM5.02761 20.0992L4.68365 19.9911L4.64635 20.1098L4.6902 20.2262L5.02761 20.0992ZM7.72339 27.2575L7.38598 27.3846L7.4739 27.6181H7.72339V27.2575ZM13.0385 27.2575V27.6181H13.2888L13.3763 27.3836L13.0385 27.2575ZM3.22647 15.3164L2.88906 15.4435L3.1535 16.1457L3.53651 15.5004L3.22647 15.3164ZM5.94556 12.0932L6.17174 12.374L6.3738 12.2112L6.28364 11.9679L5.94556 12.0932ZM4.67969 8.67737L5.01777 8.55208L4.93058 8.31683H4.67969V8.67737ZM1 8.67737V8.31683H0.639458V8.67737H1ZM1 9.40422H0.639458V9.46986L0.662591 9.53129L1 9.40422ZM15.9913 9.03791H19.7165V8.31683H15.9913V9.03791ZM15.3349 11.5972L16.331 8.79825L15.6517 8.55648L14.6556 11.3555L15.3349 11.5972ZM14.8034 11.7816C15.83 12.4267 16.7713 13.3333 17.5948 14.4732L18.1793 14.0509C17.3099 12.8474 16.3033 11.8724 15.1871 11.1711L14.8034 11.7816ZM19.3787 9.23276L17.5493 14.136L18.2249 14.3881L20.0543 9.48482L19.3787 9.23276ZM19.3559 8.67737V9.35879H20.077V8.67737H19.3559ZM16.5797 18.515C15.8439 16.7806 14.9264 15.5559 13.9621 14.7515L13.5002 15.3052C14.3607 16.023 15.216 17.1469 15.9159 18.7967L16.5797 18.515ZM10.8342 24.2439L14.0708 15.1493L13.3915 14.9075L10.1548 24.0021L10.8342 24.2439ZM10.4037 24.4835H10.4945V23.7624H10.4037V24.4835ZM6.97152 15.8992L10.0656 24.2483L10.7417 23.9977L7.64766 15.6486L6.97152 15.8992ZM7.03946 15.5351C6.13053 16.5633 5.30307 18.0196 4.68365 19.9911L5.37157 20.2072C5.96691 18.3124 6.75036 16.9509 7.57972 16.0127L7.03946 15.5351ZM8.0608 27.1305L5.36502 19.9721L4.6902 20.2262L7.38598 27.3846L8.0608 27.1305ZM13.0385 26.897H7.72339V27.6181H13.0385V26.897ZM15.91 18.5298L12.7007 27.1315L13.3763 27.3836L16.5856 18.7819L15.91 18.5298ZM3.53651 15.5004C4.29633 14.2203 5.18599 13.168 6.17174 12.374L5.71939 11.8124C4.65677 12.6684 3.7132 13.79 2.91643 15.1324L3.53651 15.5004ZM4.34162 8.80265L5.60749 12.2185L6.28364 11.9679L5.01777 8.55208L4.34162 8.80265ZM1 9.03791H4.67969V8.31683H1V9.03791ZM1.36054 9.40422V8.67737H0.639458V9.40422H1.36054ZM3.56388 15.1893L1.33741 9.27716L0.662591 9.53129L2.88906 15.4435L3.56388 15.1893Z" fill="#F8F32B" mask="url(#path-1-outside-1_782_443)"/>
<path d="M22.3765 27.2576V27.4378H22.5568H26.3274H26.5076V27.2576V8.67739V8.49712H26.3274H22.5568H22.3765V8.67739V27.2576ZM22.6777 6.14003C23.0021 6.64451 23.63 6.84384 24.4681 6.81338C25.2739 6.81283 25.8791 6.612 26.2023 6.14625C26.5309 5.68566 26.6894 5.11718 26.6894 4.45256C26.6894 3.87319 26.5281 3.3528 26.204 2.89759C25.8819 2.40027 25.2754 2.18258 24.4648 2.18258C23.6251 2.18258 23.0003 2.39967 22.6777 2.90137C22.385 3.35682 22.2403 3.87579 22.2403 4.45256C22.2403 5.11412 22.3821 5.68021 22.6777 6.14003Z" fill="white" stroke="white" stroke-width="0.360542"/>
<path d="M33.1756 26.5102L33.1772 26.511C34.4438 27.1288 35.7882 27.4378 37.2085 27.4378C39.5004 27.4378 41.4105 27.0254 42.9286 26.1889L42.9286 26.1889L42.9311 26.1875C44.4743 25.3056 45.2479 23.9266 45.2479 22.0787C45.2479 20.8381 44.9375 19.8249 44.299 19.0576C43.7041 18.3067 42.9379 17.7294 42.0047 17.325C41.0859 16.9269 40.1067 16.6057 39.0676 16.3611C38.0705 16.1194 37.119 15.8778 36.2128 15.6361C35.3187 15.3677 34.5969 15.0423 34.0421 14.6632C33.5196 14.2771 33.2548 13.7288 33.2548 12.993C33.2548 12.3377 33.5625 11.8168 34.2131 11.4208L34.2132 11.4208L34.2179 11.4178C34.8746 10.9894 35.7898 10.7656 36.9814 10.7656C37.5974 10.7656 38.2617 10.8683 38.9752 11.0764L38.9751 11.0765L38.9819 11.0782C39.6746 11.2514 40.2483 11.5961 40.708 12.1134L40.7078 12.1136L40.7153 12.1211C41.1825 12.5883 41.4189 13.3041 41.3894 14.3052L41.384 14.4907H41.5696H45.0676H45.2446L45.2479 14.3138C45.2787 12.6484 44.8779 11.2998 44.0254 10.2887C43.216 9.29306 42.1735 8.57819 40.9029 8.14396C39.6413 7.68265 38.3186 7.45224 36.9359 7.45224C34.7907 7.45224 32.9976 7.91199 31.5682 8.84409C30.1542 9.7555 29.4424 11.0689 29.4417 12.7636C29.4111 14.0011 29.6739 15.0133 30.2501 15.7815L30.2499 15.7816L30.2553 15.7881C30.8485 16.5063 31.5967 17.0821 32.4965 17.5165L32.4964 17.5166L32.5032 17.5196C33.4215 17.9175 34.3853 18.2387 35.3943 18.4834L35.3955 18.4836C36.4221 18.7252 37.3877 18.9817 38.2924 19.2531L38.2924 19.2532L38.2978 19.2546C39.1911 19.4928 39.9108 19.8179 40.4633 20.225C40.9895 20.6127 41.2531 21.1477 41.2531 21.8516C41.2531 22.5966 40.9013 23.177 40.1621 23.6034C39.4109 24.0368 38.4155 24.2607 37.1631 24.2607C36.0284 24.2607 35.1713 24.0811 34.5739 23.7403C33.9897 23.3894 33.5948 22.9887 33.3721 22.5432C33.1366 22.0723 33.0097 21.6561 32.9817 21.2926C32.9511 20.8943 32.9368 20.6767 32.9368 20.625V20.4447H32.7565H29.2131H29.0329V20.625C29.0329 21.8459 29.4093 22.9873 30.1561 24.0452L30.1561 24.0453L30.1597 24.0501C30.9349 25.0734 31.9415 25.8931 33.1756 26.5102Z" fill="white" stroke="white" stroke-width="0.360542"/>
<path d="M47.7294 27.2576V27.4378H47.9096H51.6802H51.8605V27.2576V8.67739V8.49712H51.6802H47.9096H47.7294V8.67739V27.2576ZM48.0306 6.14003C48.3549 6.64451 48.9828 6.84384 49.821 6.81338C50.6267 6.81283 51.2319 6.612 51.5551 6.14625C51.8837 5.68566 52.0422 5.11718 52.0422 4.45256C52.0422 3.87319 51.8809 3.3528 51.5568 2.89759C51.2348 2.40027 50.6282 2.18258 49.8176 2.18258C48.9779 2.18258 48.3531 2.39967 48.0306 2.90137C47.7378 3.35682 47.5931 3.87579 47.5931 4.45256C47.5931 5.11412 47.735 5.68021 48.0306 6.14003Z" fill="white" stroke="white" stroke-width="0.360542"/>
<path d="M63.7433 7.99739L63.7415 7.99741L54.5668 17.763H54.3865C54.3865 17.7634 54.3865 17.7637 54.3865 17.764C54.3867 20.5543 55.1543 22.8691 56.7007 24.6938C58.2593 26.5331 60.6192 27.4378 63.7433 27.4378C65.8257 27.4378 67.557 27.0245 68.9256 26.1846L68.9265 26.1841C70.3187 25.3178 71.3427 24.1551 71.9938 22.6981C72.6718 21.2185 73.0092 19.5724 73.0092 17.763C73.0092 14.8526 72.2273 12.4901 70.6475 10.6935C69.0599 8.88802 66.7482 7.9974 63.7433 7.99739ZM66.9463 22.9379L66.9463 22.9379L66.9436 22.9401C66.2312 23.5385 65.174 23.8519 63.7433 23.8519C62.2819 23.8519 61.1928 23.5383 60.4495 22.9379C59.69 22.3245 59.1654 21.5523 58.8731 20.6174C58.5754 19.635 58.4268 18.6382 58.4268 17.6268C58.4268 16.615 58.5755 15.6337 58.8728 14.6823L58.8733 14.6808C59.166 13.7148 59.6911 12.9281 60.4495 12.3156L60.4495 12.3156L60.4526 12.313C61.1958 11.6841 62.2836 11.3562 63.7433 11.3562C65.1722 11.3562 66.2282 11.6839 66.9405 12.3107L66.9404 12.3108L66.9463 12.3156C67.7047 12.9281 68.2297 13.7148 68.5225 14.6808L68.5229 14.6823C68.8203 15.6337 68.969 16.615 68.969 17.6268C68.969 18.6382 68.8203 19.6349 68.5227 20.6174C68.2304 21.5523 67.7057 22.3245 66.9463 22.9379Z" fill="white" stroke="white" stroke-width="0.360542"/>
<path d="M76.5572 23.076L76.5572 23.076L76.5587 23.0786C77.393 24.5 78.5231 25.5842 79.9471 26.3271C81.3689 27.0689 82.9729 27.4378 84.755 27.4378C86.5343 27.4378 88.0785 27.1003 89.3815 26.4178C90.6774 25.739 91.7006 24.8413 92.4458 23.7238C93.2179 22.5809 93.683 21.3577 93.838 20.0558L93.862 19.8542H93.6589H90.161H90.0118L89.9839 20.0007C89.7495 21.2312 89.1676 22.1568 88.2417 22.7933C87.3058 23.4367 86.2066 23.761 84.9367 23.761C83.129 23.761 81.7601 23.2147 80.8027 22.1424C79.8691 21.0326 79.393 19.5339 79.393 17.6268C79.393 15.8448 79.882 14.4059 80.8471 13.294C81.8364 12.1889 83.2069 11.6288 84.9821 11.6288C86.3461 11.6288 87.4571 11.9546 88.3281 12.5933C89.1979 13.2312 89.7504 14.1146 89.9844 15.2553L90.0139 15.3993H90.161H93.6589H93.8632L93.8378 15.1967C93.6827 13.9556 93.2327 12.7931 92.4909 11.711C91.7459 10.5939 90.7231 9.69651 89.4277 9.01783C88.1543 8.33471 86.6246 7.9974 84.8459 7.9974C83.0306 7.9974 81.4087 8.41303 79.9852 9.24846C78.5929 10.053 77.4804 11.1976 76.6479 12.6776C75.8131 14.1618 75.3835 15.9034 75.3528 17.8966H75.3528V17.8993C75.3528 19.9216 75.7512 21.6499 76.5572 23.076Z" fill="white" stroke="white" stroke-width="0.360542"/>
<path d="M96.1827 27.2575V27.4378H96.363H100.134H100.314V27.2575V18.8987C100.314 17.6134 100.508 16.5501 100.889 15.7016L100.889 15.7016L100.89 15.6996C101.263 14.8366 101.925 14.1857 102.888 13.7477L102.888 13.7478L102.892 13.7458C103.856 13.2785 105.248 13.037 107.084 13.037H107.902H108.082V12.8568V8.67737V8.4971H107.902H107.129C105.626 8.4971 104.369 8.75759 103.366 9.28994C102.404 9.78657 101.639 10.4412 101.076 11.255L101.075 11.2563C100.752 11.7312 100.492 12.219 100.296 12.7195L100.041 8.66602L100.03 8.4971H99.861H96.363H96.1827V8.67737V27.2575Z" fill="white" stroke="white" stroke-width="0.360542"/>
<path d="M113.585 26.2192L113.588 26.2212C114.687 27.0379 116.121 27.4378 117.874 27.4378C119.224 27.4378 120.345 27.2234 121.226 26.7828C122.09 26.3506 122.778 25.837 123.282 25.2386L123.282 25.2386L123.285 25.2351C123.651 24.778 123.936 24.3581 124.136 23.976L124.693 26.8827L124.721 27.029H124.87H128.096H128.276V26.8487V8.26855V8.08828H128.096H124.234H124.054V8.26855V11.4912C123.861 11.1505 123.604 10.7814 123.287 10.3841C122.814 9.75481 122.143 9.19539 121.28 8.7026C120.396 8.19751 119.257 7.95199 117.874 7.95199C115.282 7.95199 113.371 8.88177 112.18 10.7609C111.006 12.5848 110.426 14.9232 110.426 17.7631C110.426 19.626 110.67 21.2963 111.162 22.7718L111.162 22.7718L111.163 22.7761C111.688 24.2274 112.494 25.3779 113.585 26.2192ZM122.946 22.2096L122.946 22.2096L122.945 22.2125C122.291 23.2921 121.121 23.8519 119.374 23.8519C117.566 23.8519 116.333 23.2769 115.619 22.1641C114.884 20.9878 114.511 19.5241 114.511 17.7631C114.511 16.629 114.66 15.604 114.956 14.6863C115.279 13.7787 115.788 13.0681 116.484 12.5467L116.484 12.5468L116.487 12.5439C117.172 12.0016 118.127 11.7197 119.374 11.7197C121.059 11.7197 122.218 12.2639 122.902 13.3183L122.902 13.3184L122.904 13.3212C123.634 14.4016 124.009 15.8913 124.009 17.8085C124.009 19.6336 123.65 21.0962 122.946 22.2096Z" fill="white" stroke="white" stroke-width="0.360542"/>
<path d="M133.345 27.2576V27.4378H133.526H137.296H137.476V27.2576V11.4925H142.202H142.383V11.3122V8.58653V8.40625H142.202H137.476V4.17854H142.43H142.61V3.99827V1V0.819729H142.43H137.251C135.921 0.819729 134.908 1.16008 134.255 1.87816L134.255 1.87812L134.252 1.88159C133.637 2.59383 133.345 3.64329 133.345 4.99769V8.40625H130.8H130.62V8.58653V11.3122V11.4925H130.8H133.345V27.2576Z" fill="white" stroke="white" stroke-width="0.360542"/>
<path d="M148.722 26.376L148.722 26.376L148.725 26.3794C149.378 27.0975 150.391 27.4378 151.721 27.4378H155.9H156.08V27.2576V24.2593V24.079H155.9H151.765V11.5833H155.855H156.035V11.4031V8.67738V8.49711H155.855H151.765V3.90741V3.72714H151.584H148.45H148.27V3.90741C148.27 5.38868 148.178 6.45965 148.003 7.13274L148.003 7.13272L148.002 7.13829C147.859 7.76498 147.572 8.12584 147.163 8.28029C146.737 8.42151 146.066 8.49711 145.134 8.49711H144.953V8.67738V11.4031V11.5833H145.134H147.815V23.2144C147.815 24.5979 148.107 25.6631 148.722 26.376Z" fill="white" stroke="white" stroke-width="0.360542"/>
</svg>
