<svg width="37" height="37" viewBox="0 0 37 37" fill="none" xmlns="http://www.w3.org/2000/svg">
<mask id="path-1-outside-1_329_630" maskUnits="userSpaceOnUse" x="0" y="1" width="37" height="35" fill="black">
<rect fill="white" y="1" width="37" height="35"/>
<path d="M14.9398 8.488L18.5398 17.128L22.0918 8.488H25.7158L19.9798 22H17.0758L11.2918 8.488H14.9398Z"/>
</mask>
<path d="M14.9398 8.488L18.5398 17.128L22.0918 8.488H25.7158L19.9798 22H17.0758L11.2918 8.488H14.9398Z" fill="#F1FFFA"/>
<path d="M14.9398 8.488L21.4014 5.79569L19.6065 1.488H14.9398V8.488ZM18.5398 17.128L12.0783 19.8203L18.5833 35.4322L25.0141 19.7896L18.5398 17.128ZM22.0918 8.488V1.488H17.4012L15.6176 5.82637L22.0918 8.488ZM25.7158 8.488L32.1593 11.2233L36.292 1.488H25.7158V8.488ZM19.9798 22V29H24.6129L26.4233 24.7353L19.9798 22ZM17.0758 22L10.6406 24.7547L12.4579 29H17.0758V22ZM11.2918 8.488V1.488H0.681022L4.85665 11.2427L11.2918 8.488ZM8.47831 11.1803L12.0783 19.8203L25.0014 14.4357L21.4014 5.79569L8.47831 11.1803ZM25.0141 19.7896L28.5661 11.1496L15.6176 5.82637L12.0656 14.4664L25.0141 19.7896ZM22.0918 15.488H25.7158V1.488H22.0918V15.488ZM19.2724 5.75268L13.5364 19.2647L26.4233 24.7353L32.1593 11.2233L19.2724 5.75268ZM19.9798 15H17.0758V29H19.9798V15ZM23.511 19.2453L17.727 5.73332L4.85665 11.2427L10.6406 24.7547L23.511 19.2453ZM11.2918 15.488H14.9398V1.488H11.2918V15.488Z" fill="#016FB9" mask="url(#path-1-outside-1_329_630)"/>
</svg>
