<svg width="20" height="20" viewBox="0 0 20 20" fill="none" xmlns="http://www.w3.org/2000/svg">
<rect width="20" height="20" rx="10" fill="#252D29"/>
<path fill-rule="evenodd" clip-rule="evenodd" d="M8.82679 14.8094C9.05566 15.2516 9.51208 15.5294 10.0101 15.5294H10.0832C10.5821 15.5294 11.0392 15.2506 11.2677 14.807L12.9102 11.6171C12.2086 11.8369 11.6275 11.8136 11.119 11.5944C11.0656 11.5713 11.014 11.5465 10.9641 11.5203L10.3373 12.8348C10.2165 13.0881 9.85573 13.0876 9.73561 12.834L8.48582 10.1951C8.11537 10.322 7.61012 10.5937 6.91676 11.1183L8.82679 14.8094ZM6.38927 10.099C6.99602 9.65342 7.52508 9.3477 7.99902 9.16727L6.85959 6.76143C6.69812 6.4205 6.35465 6.20312 5.97742 6.20312C5.24586 6.20312 4.77429 6.97813 5.1105 7.62785L6.38927 10.099ZM11.4523 10.4966C11.4904 10.5184 11.5286 10.5377 11.5673 10.5544C11.8336 10.6692 12.2693 10.7252 13.1169 10.3163C13.2702 10.2424 13.4403 10.2437 13.5855 10.3057L14.9713 7.61427C15.303 6.97004 14.8353 6.20312 14.1107 6.20312C13.7375 6.20312 13.3976 6.41762 13.237 6.75445L11.4523 10.4966Z" fill="#FDFEF5"/>
</svg>
