<svg width="37" height="35" viewBox="0 0 37 35" fill="none" xmlns="http://www.w3.org/2000/svg">
<mask id="path-1-outside-1_329_630" maskUnits="userSpaceOnUse" x="0" y="0" width="37" height="35" fill="black">
<rect fill="white" width="37" height="35"/>
<path d="M14.9398 7.488L18.5398 16.128L22.0918 7.488H25.7158L19.9798 21H17.0758L11.2918 7.488H14.9398Z"/>
</mask>
<path d="M14.9398 7.488L18.5398 16.128L22.0918 7.488H25.7158L19.9798 21H17.0758L11.2918 7.488H14.9398Z" fill="#EDF2EF"/>
<path d="M14.9398 7.488L21.4014 4.79569L19.6065 0.487999H14.9398V7.488ZM18.5398 16.128L12.0783 18.8203L18.5833 34.4322L25.0141 18.7896L18.5398 16.128ZM22.0918 7.488V0.487999H17.4012L15.6176 4.82637L22.0918 7.488ZM25.7158 7.488L32.1593 10.2233L36.292 0.487999H25.7158V7.488ZM19.9798 21V28H24.6129L26.4233 23.7353L19.9798 21ZM17.0758 21L10.6406 23.7547L12.4579 28H17.0758V21ZM11.2918 7.488V0.487999H0.681022L4.85665 10.2427L11.2918 7.488ZM8.47831 10.1803L12.0783 18.8203L25.0014 13.4357L21.4014 4.79569L8.47831 10.1803ZM25.0141 18.7896L28.5661 10.1496L15.6176 4.82637L12.0656 13.4664L25.0141 18.7896ZM22.0918 14.488H25.7158V0.487999H22.0918V14.488ZM19.2724 4.75268L13.5364 18.2647L26.4233 23.7353L32.1593 10.2233L19.2724 4.75268ZM19.9798 14H17.0758V28H19.9798V14ZM23.511 18.2453L17.727 4.73332L4.85665 10.2427L10.6406 23.7547L23.511 18.2453ZM11.2918 14.488H14.9398V0.487999H11.2918V14.488Z" fill="#EC7357" mask="url(#path-1-outside-1_329_630)"/>
</svg>
