<svg width="12" height="12" viewBox="0 0 12 12" fill="none" xmlns="http://www.w3.org/2000/svg">
<rect width="12" height="12" rx="2" fill="#121420"/>
<path d="M5.62455 9.25C5.364 9.25 5.13539 9.07637 5.06548 8.82538L3.54944 3.3832C3.4608 3.06501 3.70005 2.75 4.03036 2.75V2.75C4.25613 2.75 4.45381 2.90153 4.51245 3.11955L5.97595 8.56033C5.98519 8.59469 6.01635 8.61857 6.05193 8.61857V8.61857C6.08755 8.61857 6.11873 8.59463 6.12794 8.56022L7.58258 3.12038C7.64099 2.90194 7.83889 2.75 8.06501 2.75V2.75C8.39514 2.75 8.63442 3.06462 8.54625 3.38276L7.03807 8.82464C6.96841 9.076 6.73963 9.25 6.4788 9.25H5.62455Z" fill="white"/>
</svg>
