<svg width="16" height="17" viewBox="0 0 16 17" fill="none" xmlns="http://www.w3.org/2000/svg">
<rect x="0.0947266" y="0.875488" width="15.25" height="15.2488" rx="1.35915" fill="#1F2041"/>
<path d="M3.07611 5.55367L4.7071 9.46803L6.31633 5.55367H7.95819L5.35949 11.6753H4.04383L1.42338 5.55367H3.07611ZM7.99293 8.56555C7.99293 8.18861 8.06542 7.81892 8.2104 7.45648C8.36262 7.09404 8.58009 6.76784 8.86279 6.47789C9.1455 6.18794 9.48981 5.95598 9.89575 5.782C10.3017 5.60803 10.762 5.52105 11.2766 5.52105C11.8928 5.52105 12.4256 5.64428 12.875 5.89074C13.3244 6.1372 13.6579 6.45977 13.8753 6.85845L12.6793 7.70657C12.5416 7.39487 12.3314 7.18465 12.0486 7.07592C11.7732 6.96719 11.505 6.91282 11.244 6.91282C10.9686 6.91282 10.7257 6.96356 10.5155 7.06505C10.3053 7.15928 10.1313 7.28976 9.99361 7.45648C9.85588 7.61596 9.75077 7.79718 9.67828 8.00014C9.61304 8.20311 9.58042 8.40608 9.58042 8.60904C9.58042 8.83376 9.62029 9.05122 9.70003 9.26144C9.77977 9.47165 9.89212 9.66012 10.0371 9.82684C10.1893 9.98632 10.3669 10.1132 10.5699 10.2074C10.7801 10.2944 11.0121 10.3379 11.2658 10.3379C11.4397 10.3379 11.621 10.3125 11.8094 10.2618C11.9979 10.2038 12.1683 10.1168 12.3205 10.0008C12.48 9.88484 12.5996 9.73261 12.6793 9.54414L13.9623 10.3053C13.8319 10.6097 13.618 10.867 13.3208 11.0773C13.0236 11.2875 12.6902 11.4506 12.3205 11.5666C11.9508 11.6753 11.5847 11.7297 11.2223 11.7297C10.7511 11.7297 10.3162 11.639 9.91749 11.4578C9.52606 11.2766 9.18536 11.0374 8.89541 10.7402C8.60546 10.4357 8.38075 10.0951 8.22127 9.71811C8.06905 9.34117 7.99293 8.95699 7.99293 8.56555Z" fill="white"/>
</svg>
